<?xml version="1.0" encoding="UTF-8"?>
<svg id="Layer_1" xmlns="http://www.w3.org/2000/svg" version="1.1" xmlns:xlink="http://www.w3.org/1999/xlink" viewBox="0 0 1280 1024">
  <!-- Generator: Adobe Illustrator 29.5.1, SVG Export Plug-In . SVG Version: 2.1.0 Build 141)  -->
  <defs>
    <style>
      .st0 {
        fill: #d15735;
      }

      .st1 {
        fill: #95999d;
      }

      .st2 {
        fill: #cbcbcb;
      }

      .st3 {
        fill: #fff;
      }

      .st4 {
        fill: #c15032;
      }

      .st5 {
        fill: none;
      }

      .st6 {
        fill: #d5d5d5;
      }

      .st7 {
        fill: #020202;
      }

      .st8 {
        fill: #373f49;
      }

      .st9 {
        clip-path: url(#clippath-1);
      }

      .st10 {
        fill: #4a2a1e;
      }

      .st11 {
        fill: #b1370d;
      }

      .st12 {
        fill: #bb3b0f;
      }

      .st13 {
        fill: #5b5b5b;
      }

      .st14 {
        fill: #c73f0f;
      }

      .st15 {
        fill: #010101;
      }

      .st16 {
        clip-path: url(#clippath);
      }

      .st17 {
        fill: #b3390e;
      }

      .st18 {
        fill: #deaa87;
      }

      .st19 {
        fill: #90362a;
      }
    </style>
    <clipPath id="clippath">
      <rect class="st5" x="260.44" y="240.1" width="1002.27" height="760.14"/>
    </clipPath>
    <clipPath id="clippath-1">
      <rect class="st5" x="260.44" y="240.1" width="1002.27" height="760.14"/>
    </clipPath>
  </defs>
  <path class="st2" d="M377.29,551.54c.81,6.02,8.12,9.07,12.68,4.64,2.36-2.29,2.26-5.75,2.56-8.79.57-5.65,1.52-11.25,2.46-16.85.31-1.81.46-7.21,2.03-8.28,1.09-.75,3.1-.17,4.3-.06,2.84.27,5.99.22,8.84.02,15.71-1.08,34.7,1.76,45.45-12.68,10.06-13.52,12.6-31.63,15.06-47.87,2.69-17.74,5.92-35.44,8.18-53.24,1.1-8.64,1.43-17.7,2.92-26.24.55-3.15,5.05-4.98,6.78-7.46,1.15-1.65,1.68-3.82,1.26-5.8-.19-.91-1.32-2.56-.91-3.42.94-1.99,3.96-3.3,5.43-4.91,3.15-3.43,3.7-11.31.08-14.54-4.75-4.23-11.37.03-15.74,2.65-12.59,7.56-24.24,17.51-34.23,28.23-21.04,22.59-36.89,48.95-48.8,77.35-5.14,12.25-8.08,25.1-12.51,37.57-1.78,5.01-4.67,9.71-6.71,14.64-4.26,10.31-9.07,22.98-9.35,34.26-.16,6.63,2.33,12.81,10.22,10.77h0ZM377.29,551.54"/>
  <g class="st16">
    <path class="st13" d="M716.36,371.55c0-7.56-1.73-15.21-2.97-22.65-.28-1.66-.26-6.67-1.62-7.73-.85-.66-2.69-.24-3.7-.31-3.27-.22-6.4.03-9.67.03-13.12,0-26.42,1.01-39.51,1.91-48.75,3.34-97.56,3.34-146.42,3.34,0,8.75-.89,17.53-.25,26.24.81,11.13,2.63,22.81,1.28,33.98-.44,3.61-1.14,7.02-2.92,10.22-1.48,2.66-4.16,5.25-4.71,8.29-2.04,11.22-3.13,22.69-4.79,33.98-3.07,20.84-6.48,41.62-9.71,62.43-2.06,13.3-4.48,26.55-6.96,39.78-1.42,7.6-3.47,15.23-4.2,22.93-.84,8.85.72,17.98,1.56,26.8,1.52,15.93,3.36,32.34,3.36,48.34,23.33,0,46.66-3.98,69.89-6.31,45.54-4.55,90.94-10.46,136.47-15.01,11.51-1.15,23.02-2.2,34.53-3.32,6.11-.59,12.37-1.59,18.51-1.61l-.05-10.77-4.37-29.84h10.77c0,9.61,1.88,19.5,3.24,29.01.28,1.99.21,8.1,1.89,9.34.96.71,2.85.27,3.99.41,4.7.55,9.95,0,14.64-.55,15.57-1.84,31.37-1.59,46.96-3.07,12.19-1.16,24.52-1.17,36.74-2.01,30.55-2.09,61.16-3.38,91.72-5.47,12.42-.85,24.87-1.36,37.3-2.21,6-.41,12.3-.11,18.23-1.17,1.58-.28,2.78-1.55,4.42-1.9,0-7.29.22-15-1.93-22.1,2.94-.7,6.1.39,8.84-1.2,4.91-2.86,4.66-10.63-.55-13.02-3.5-1.6-8.65-.7-12.43-.7h-461.62c0-35.9-.46-71.87,1.12-107.74,1.22-27.9,2.48-55.73,2.48-83.71h377.92c30.03,0,59.81.83,89.78.83h20.44c3.59,0,7.18-.21,9.01-3.87,2.23-4.43-.21-9.79-5.14-10.75-3.9-.75-8.19-.3-12.15-.3h-21.82c0-5.76-.66-11.72-1.59-17.4-.3-1.83-.4-4.79-1.64-6.25-1.04-1.22-3.29-1.48-4.78-1.74-3.67-.65-7.34-1.36-11.05-1.7-14.57-1.36-29.08-1.17-43.65-2.17-12.81-.88-25.84,0-38.68-.3l-91.72-2.21c-18.14-.44-36.28-.55-54.42-.55-5.71,0-11.44.28-17.13.28-3.35,0-7.18-.52-10.48.04-1.82.31-1.49,5.9-1.35,7.42.56,5.83,1.12,11.83,1.33,17.68.05,1.45.99,4.42.25,5.71-.56.96-2.36.64-3.28.64h-9.39ZM716.36,371.55"/>
    <path class="st8" d="M710.26,345.03c.24,5.59,1.79,11.32,2.65,16.85,1.98,12.76,4.09,25.55,5.32,38.4,2,21,3.04,42.21,4.49,63.26,2.58,37.5,7.01,75.22,12.52,112.44,2.76,18.67,4.75,37.53,8.24,56.08.39,2.05,1.52,3.19,2.41,4.97.62,1.24.64,2.66,1.42,3.87,1.91,2.97,5.88,3.98,9.08,2.73,2.51-.98,3.4-2.99,4.53-5.22.69-1.36,1.76-2.37,2.22-3.87.93-3-.36-6.39-.88-9.39-3.06-17.61-4.97-35.56-6.96-53.32-4.71-41.92-7.88-84-11.94-125.97-2.34-24.21-4.32-48.45-6.63-72.66-.91-9.54-2.03-19.16-2.44-28.73,20.05,0,40.16-.76,60.22-.27,43.98,1.08,88.04,3.04,132.05,3.04,17.93,0,36.07-.33,53.87,1.86,4.17.51,8.29,1.08,12.43,1.8,1.7.29,4.13.51,5.47,1.7,1.29,1.16,1.5,3.25,1.83,4.86.87,4.33,1.36,8.85,1.56,13.26.75,16.58,1.09,33.08,1.09,49.73,0,51.24-5.64,102.47.47,153.6,1.41,11.73,3.13,23.4,4.94,35.08.69,4.48.64,11.42,3.33,15.19,3.2,4.47,10.26,4.21,12.81-.83,1.34-2.65.53-5.28,0-8.01l21.27-1.36,39.23-3.02,91.44-8.69,33.98-4.64,20.44-3.29c.06,7.4,1.73,15,2.44,22.38.5,5.17-.05,11.35,1.59,16.3,1.58,4.79,7.77,6.56,11.71,3.45,3.65-2.88,2.64-7.18,2.26-11.18-.8-8.38-1.29-16.78-2.42-25.14-1.63-12.12-3.38-24.21-7.12-35.91-3.8-11.91-9.54-22.94-14.74-34.25-5.51-12-10.81-24.06-16.03-36.19-16.8-39.05-29.43-80.27-36.98-122.1-2.96-16.4-5.5-33.01-9.55-49.17-2.31-9.24-5.42-19.55-11.89-26.8-10.42-11.67-26.17-13.71-40.84-15.82-24.97-3.6-50.65-5.39-74.87-12.92-8.49-2.64-16.45-6.8-23.76-11.84-5.63-3.88-11.65-9.53-18.51-11.02-12.21-2.66-24.87-3.12-37.29-3.66-32.32-1.41-64.54,2-96.69,5.21-51.49,5.15-102.31,15.05-153.6,21.79-38.21,5.03-76.98,7.08-115.47,7.26-15.54.08-31.17,1.24-46.69,1.92-5.71.25-11.42.58-17.13.83-3.06.13-6.74-.04-9.67.94-1.96.65-2.89,2.1-4.44,3.32-2.15,1.68-4.49,3.09-6.61,4.85-12.51,10.4-22.58,26.29-22.37,43.12.07,5.48,1.27,15.73,6.07,19.16,1.94,1.39,4.68,1.65,6.91.85,1.04-.37,2.17-1.55,3.32-1.36,1.23.21,2.32.97,3.59,1.15,3.72.54,7.58.21,11.33.37,7.91.35,15.83.54,23.76.54,29.98,0,59.88-.08,89.78-1.39,27.75-1.22,55.64-4.13,83.43-4.13h0ZM710.26,345.03"/>
  </g>
  <path class="st15" d="M906.4,829.36h1.38c-1.78,2.31-3.74,4.78-4.14,7.73-5.28-2.34-11.31-3.74-16.85-5.36-2.7-.79-5.42-2.02-8.29-1.79-7.51.6-7.87,9.14-3.59,13.51-7.78.06-15.7,1.93-23.48,2.46-15.27,1.05-30.57,1.56-45.86,2.22-11.5.5-23.05.3-34.53,1.09-4.13.28-8.96-.67-12.97.39-2.01.53-3.72,4.38-4.87,5.99-3.22,4.51-6.62,8.92-10.06,13.26-1.72,2.17-4.11,4.28-4.14,7.18-2.48-1.15-4.68-2.19-7.46-1.32-4.91,1.54-6.79,7.85-3.5,11.81,2.16,2.6,5.92,4.21,8.75,5.99,7.94,5.01,16.51,9.23,25.14,12.92,23.42,9.99,47.53,12.54,72.66,14.27,18.52,1.28,37.01,3.12,55.53,4.42,12.28.86,24.54,2.24,36.74,3.96,4.57.64,11.28,2.25,14.86-1.52,3.07-3.23,2.41-8.89-1.33-11.31-2.52-1.63-6.22-1.26-9.12-1.6-.94-.11-2.68-.01-3.38-.76-.75-.81-.12-2.21-.04-3.15.24-2.85.76-5.51,1.28-8.31,1.41-7.62,4.26-14.91,7.74-21.8,1.77-3.51,5.01-6.87,6.35-10.5.38-1.03.22-2.24.48-3.31,3.04,1.35,6.3,2.29,9.39,3.54,3.1,1.25,6,2.89,9.39,1.69,4.48-1.59,6.16-7.46,3.41-11.3-1.84-2.57-6.43-4.44-9.49-4.97,12.88-10.92,27.37-17.92,43.92-21.08,4.81-.92,11.16-2.44,16.02-1.3-.58,2.43-1.06,5.9-.15,8.29,1.69,4.41,7.3,6.14,11.19,3.46,4.95-3.4,3.34-11.29,3.95-16.45.8-6.77.22-13.98-.59-20.72-.57-4.74-1.41-9.62-4.77-13.26-3.99-4.32-9.27-4.81-14.06-7.59-3.61-2.09-6.27-5.74-9.12-8.71,5.73-.25,11.11-.84,16.85.12,17.27,2.9,31.18,13.96,43.92,25.34,6.71,5.99,13.35,12.04,20.17,17.91,3,2.59,6.64,6.43,10.77,6.86,6.31.65,12.69-2.85,18.23-5.39,9.22-4.24,18.11-9.03,25.69-15.88,3.35-3.03,5.96-6.7,9.12-9.9,2.31-2.33,5.21-4.22,7.37-6.66,4.21-4.75.99-13-5.71-12.63-4.67.26-8.8,5.15-11.88,8.23-6.97,6.97-13.74,16.67-23.76,19.61,0-4.01-5.59-6.7-8.29-9.39-8.02-8.01-15.93-16.06-23.4-24.59-5.78-6.6-11.29-13.43-16.91-20.17-1.8-2.15-4.31-6.8-6.95-7.85-4.34-1.72-10.78.28-15.17,1.01-10.76,1.79-21.56,3.38-32.32,5.16-16.82,2.78-33.56,6.07-50.28,9.41-4.6.92-9.19,1.89-13.81,2.69-2.01.35-5.1.41-6.85,1.49-1.37.85-2.23,3.3-3.04,4.65-2.33,3.88-4.69,7.73-7.02,11.6-5.81,9.68-11.74,19.3-17.01,29.28-1.97,3.73-4.92,7.77-5.97,11.88-.77,3-.17,6.09-.17,9.12h0ZM906.4,829.36"/>
  <path d="M1008.59,999.91c-.53-.06-2.71-.31-4.83-.54-9.46-1.04-20.64-4.4-29.59-8.9-17.37-8.74-31-22.3-39.33-39.14-3.44-6.96-5.37-12.35-6.9-19.34-1.48-6.74-1.77-9.74-1.77-17.82s.3-11.08,1.77-17.82c1.53-6.99,3.45-12.38,6.9-19.34,5.35-10.82,12.51-19.86,22.02-27.8,13.21-11.04,29.73-18.17,47.04-20.32,2.96-.37,5.96-.5,11.46-.5,10.47,0,17.89,1.04,26.75,3.74,23.83,7.27,43.16,23.4,53.78,44.87,3.44,6.96,5.37,12.35,6.9,19.34,1.47,6.74,1.77,9.75,1.77,17.82s-.3,11.08-1.77,17.82c-1.53,6.99-3.45,12.38-6.9,19.34-10.63,21.47-29.96,37.6-53.78,44.87-4.17,1.27-10.78,2.69-15.01,3.21-3.53.44-16.19.78-18.51.51h0ZM329.83,921.06c-33.24-2.93-60.69-26.21-67.55-57.3-1.26-5.72-1.6-8.93-1.6-15.34s.33-9.62,1.6-15.34c4.67-21.15,19.27-39.49,39.23-49.3,11.54-5.67,21.9-8.1,34.67-8.12,6.79-.01,9.59.26,15.83,1.52,29.15,5.89,52.08,27.86,58.34,55.9,1.26,5.64,1.6,8.91,1.6,15.34s-.34,9.71-1.6,15.34c-6.71,30.03-32.19,52.66-64.09,56.9-4.04.54-12.5.74-16.44.39h0ZM329.83,921.06"/>
  <path class="st6" d="M326.7,798.65c-7.19.98-14.05,3.18-20.17,7.16-5.11,3.33-9.53,7.58-12.98,12.61-17.17,25.14-5.07,60.91,24.03,70.24,6.35,2.04,13.29,2.58,19.89,1.78,6.5-.78,12.6-2.96,18.23-6.28,4.42-2.6,8.26-6.04,11.57-9.94,21.74-25.6,7.84-66.2-24.27-74.42-5.14-1.31-11.02-1.88-16.3-1.16M330.84,803.3c5.41-.61,11.91,1.09,16.85,3.19,4.66,1.99,9.09,4.75,12.71,8.33,19.32,19.1,15.41,51.72-8.01,65.58-4.44,2.63-9.76,4.57-14.92,5.09-13.04,1.31-25.53-2.34-35.06-11.6-16.07-15.61-15.85-43.73.53-59.05,8.08-7.56,17.23-10.34,27.9-11.55M328.63,817.15c-5.02.67-9.6,2.04-13.81,4.95-13.25,9.14-14.94,28.59-3.58,39.95,6.25,6.24,15.41,8.83,24.02,7.67,3.91-.53,7.7-1.94,11.05-4.01,2.91-1.81,5.47-4.15,7.45-6.96,12.82-18.23-2.64-44.59-25.13-41.6M1008.78,843.95c-13.07,1.72-24.8,4.96-35.64,12.91-32.25,23.65-36.22,73.23-7.46,101.33,15.67,15.3,36.87,21.33,58.29,18.44,8.49-1.14,16.74-4.53,24.03-8.93,6.73-4.06,12.73-9.38,17.56-15.58,22.93-29.42,17.19-73.87-13.42-95.74-6.19-4.42-13.13-7.82-20.44-9.9-7.19-2.05-15.45-3.51-22.93-2.53M1008.23,851.1c6.89-.81,14.36.21,20.99,2.09,8.43,2.39,16.3,6.51,22.93,12.27,23.93,20.79,27.4,58.52,7.16,83.07-4.56,5.53-10.05,10.28-16.28,13.85-6.46,3.71-13.81,6.56-21.27,7.37-20.13,2.19-39.74-3.96-53.55-19.29-24.38-27.08-17.73-71.93,13.49-90.76,8.23-4.96,17.04-7.49,26.52-8.61M1007.4,871.03c-6.08.83-11.92,2.68-17.13,5.97-4.34,2.75-8.17,6.27-11.13,10.48-2.61,3.71-4.5,7.77-5.68,12.15-7.4,27.36,18.11,51.02,44.71,47.44,5.45-.73,10.78-2.78,15.47-5.61,4.27-2.58,8.06-6.03,11.01-10.06,2.72-3.7,4.67-7.75,5.93-12.16,7.51-26.31-16.5-51.86-43.18-48.23h0ZM1007.4,871.03"/>
  <path class="st14" d="M343.53,736.72c-15.54,2.04-30.75,5.32-46.13,8.39-5.83,1.17-13.84,1.85-13.53,9.72.28,6.87,9.17,11.55,14.08,15.16,15.4,11.33,33.68,17.68,48.9,29.28,8.98,6.85,16.68,14.97,24,23.52,5.53,6.46,10.56,13.43,17.72,18.23,4.07,2.73,8.06,3.17,12.43,4.89,2.54,1,4.14,3.16,7.18,2.72,4.76-.69,7.23-4.65,6.51-9.27-1.57-10.06-4.7-20.15-7.8-29.84-1.5-4.71-3.04-9.4-4.61-14.09-7.87-23.52-20.09-55.24-48.25-58.61-3.35-.4-7.14-.56-10.5-.12h0ZM343.53,736.72"/>
  <path class="st17" d="M314.59,741.54c3.35,4.36,9.4,7.65,13.54,11.37,7.77,7,14.89,14.72,21.42,22.88,10.93,13.67,19.91,28.56,28.22,43.92,3.6,6.65,6.39,14.05,10.4,20.43,2.68,4.26,8.78,4.12,12.89,5.74,3.73,1.47,5.97,4.12,10.22,1.76,5.36-2.97,3.29-9.38,2.27-14.11-2.73-12.65-6.8-25.05-10.92-37.3-7.79-23.13-19.53-55.19-47.15-59.28-13.98-2.07-27.23,2.82-40.89,4.58h0ZM314.59,741.54"/>
  <path class="st14" d="M490.74,344.8c-13.74,1.97-11.21,17.93-11.9,28.06-.22,3.23-.57,6.44-.83,9.67-1.67,20.79-5.78,41.56-8.98,62.16-2.66,17.17-4.36,35.57-12.07,51.38-2.29,4.7-5.32,9.2-9.32,12.62-7.26,6.22-16.57,7.15-25.69,7.55-10.65.47-21.41.06-32.05.79-4.28.29-9.12-.7-13.26.64-3.34,1.08-3.55,3.77-5.17,6.29-.96,1.49-2.44,2.79-3.59,4.14-9.17,10.75-17.56,22.77-23.47,35.64-10.27,22.36-7.3,45.89-5.64,69.62,2.13,30.38,11.3,59.03,19.8,88.13,5.04,17.26,9.1,34.81,14.58,51.94,5.02,15.71,11.54,30.74,18.06,45.86,6.1,14.15,11.85,28.45,18.07,42.54,3.42,7.74,6.44,16.29,11.41,23.21,3.44,4.78,8.72,6.92,13.97,9.16,11.88,5.06,24.68,7.46,37.29,9.9,5.23,1.01,12.39,3.56,17.68,2.67,3.06-.51,4.1-2.61,5.79-4.82,1.31-1.72,3.18-2.55,3.94-4.75.89-2.57.06-5.13-.26-7.73-.56-4.49-.99-9.02-1.19-13.54-1.44-32.54-3.86-65.2-3.86-97.79,0-41.44-.23-83.28-3.06-124.59-.88-12.89-1.56-25.81-2.79-38.68-.69-7.17-2.19-14.9-1.88-22.1.28-6.32,2.23-12.87,3.47-19.06,2.03-10.18,3.8-20.42,5.52-30.66,5.95-35.47,11.28-71.02,16.3-106.63,2.82-20.03,4.84-40.08,6.22-60.22.37-5.35.53-10.65.53-16.02,0-2.45.42-5.24-.8-7.46-4.45-8.07-18.63-9.07-26.82-7.89h0ZM490.74,344.8"/>
  <path class="st7" d="M526.14,595.51c4.69-.5,9.45,1.98,14.09-.14,5.73-2.62,4.92-10.68-.55-12.99-4.05-1.71-8.67-1.97-12.98-2.38-7.63-.74-15.41-1.17-22.93-2.77-3.64-.78-7.1-1.98-10.5-3.49-1.98-.88-4.01-2.03-6.07-.62-4.82,3.28.98,13.37,3.08,16.88,6.06,10.15,17.13,18.04,27.57,23.27,3.46,1.73,8.23,4.72,12.16,3.33,1.29-.45,2.5-1.14,3.59-1.95,8.68-6.47-.18-16.48-7.46-19.13M529.46,606.56l.55,1.93-1.38-.83v-.28l.83-.83ZM529.46,606.56"/>
  <path class="st12" d="M480.25,410.19c3.92.08,6.11,3.15,7.25,6.63,2.07,6.33,1.01,12.46-.35,18.79-5.94,27.76-13.18,55.33-20.06,82.88-7.3,29.22-10.52,59.74-15.14,89.51-9.46,60.98-19.15,121.98-29.1,182.88-2.86,17.52-5.29,35.17-7.61,52.77-.7,5.35-1.51,10.68-2.21,16.02-.32,2.44-1.2,5.28-.96,7.74.23,2.28,1.89,4.88,2.9,6.91,2.3,4.62,4.35,9.57,8.08,13.26,3.48,3.43,8.79,5.29,13.26,7.08,11.35,4.54,23.4,6.88,35.36,9.17,5.38,1.03,11.93,3.23,17.4,2.79,3.58-.29,4.48-2.8,6.53-5.12,1.29-1.47,2.9-2.31,3.66-4.25,1.46-3.74-.26-9.09-.72-12.98-1-8.43-1.13-16.96-1.71-25.42-2.11-30.77-1.7-61.73-3.05-92.55-1.58-35.99-.06-72.07-2.52-108.02-.99-14.54-1.67-29.13-3.06-43.65-.69-7.2-2.36-15.16-1.86-22.38.87-12.66,4.79-25.63,7.04-38.12,4.48-24.85,8.52-49.86,12.03-74.87,4.47-31.77,8.85-63.4,11.89-95.31.74-7.81,1.06-15.63,1.06-23.48,0-3.33.6-7.04-1.99-9.62-5.73-5.74-13.65-6.41-21.5-6.41-2.1,0-6.59-.48-8.02,1.5-.96,1.33-.75,4.36-.83,5.96-.2,4.15-.8,8.29-1.13,12.43-1.22,15.2-4.36,30.62-4.67,45.86M343.51,565.45c-3.05,7.86-6.07,16.02-6.08,24.59h.28l4.32-17.13,1.48-7.46ZM343.51,565.45"/>
  <g class="st9">
    <path class="st14" d="M1236.5,591.54c-17.18,2.05-34.18,5.51-51.38,7.57-41.25,4.95-82.62,9.06-124.04,11.9-127.38,8.73-254.92,13.51-382.06,26.22-48.95,4.89-97.74,11.4-146.69,16.3-14.37,1.44-28.73,2.98-43.1,4.42-4.05.4-8.1.84-12.16,1.13-2.35.17-5.08.03-7.18,1.23-2.63,1.51-2.52,3.66-3.87,5.93-.77,1.29-2.2,1.96-2.95,3.36-1.62,3.06-.52,6.42-.38,9.67.58,13.22,2,26.81,1.09,40.06-.97,14.17-.6,28.64-.26,42.82.91,37.34,4.27,73.98,11.16,110.78,1.52,8.12,3.12,16.21,4.74,24.31,1.27,6.35,2.14,12.67,5.49,18.23,1.51,2.51.26,5.08,2.93,7.37,4.6,3.95,11.41,5.76,17.12,7.39,13.47,3.84,27.5,5.79,41.44,6.81,37.78,2.77,75.69,2.47,113.54.82,7.65-.33,15.29-.34,22.93-.87,3.93-.27,7.95-1.19,11.88-1.2,2.41,0,4.21,2.02,6.91,1.73,3.53-.38,5.15-3.16,7.08-5.75,3.35-4.51,6.92-8.87,10.43-13.26,10.61-13.27,21.4-26.41,31.88-39.78,2.99-3.81,5.94-7.67,8.78-11.6,1.22-1.7,2.41-4.37,4.07-5.63,2.27-1.72,8.22-.69,10.96-.72,8.93-.11,17.85-.78,26.8-.83,22.92-.11,46.27-1.38,69.06-3.82,6.38-.68,12.73-1.63,19.06-2.7,2.9-.49,6.46-.55,9.12-1.88,1.99-.99,2.42-2.81,3.94-4.18,1.2-1.08,2.84-1.36,3.92-2.65,2.97-3.54,4.49-9.36,6.57-13.51,6.77-13.54,14.41-26.53,22.2-39.5,2.55-4.24,5.12-8.47,7.68-12.71.87-1.44,1.89-4.29,3.51-4.96,2.46-1.02,5.65-1.09,8.26-1.61,6.07-1.21,12.15-2.4,18.23-3.54,18.78-3.52,37.49-7.19,56.36-10.22,6.63-1.06,13.27-2.04,19.89-3.13,1.77-.29,5.59-1.7,7.16-.68,1.64,1.07,2.94,3.3,4.19,4.8l8.93,10.77c8.97,10.78,18.15,21.3,28.07,31.22,5.21,5.21,11.03,12.86,18.79,13.97,4.3.62,8.54-1.31,12.43-2.86,7.19-2.87,14.21-6.06,21.27-9.21,28.86-12.86,57.57-27.61,84.81-43.61,8.59-5.05,21.25-11.16,25.89-20.44,1.64-3.28,1.46-6.66,1.46-10.22,0-6.21-.55-12.32-.82-18.51-1.05-24.06-3.96-47.88-6.65-71.83-.93-8.31-2.28-16.59-3.5-24.86-.69-4.65-.91-10.27-2.69-14.64-1.68-4.11-7.77-8.43-12.3-7.89h0ZM1236.5,591.54"/>
    <path class="st11" d="M1236.45,591.54c-6.59.78-13.07,1.79-19.61,2.9-2.94.49-6.3.6-9.12,1.57-2.97,1.02-5.63,3.5-8.29,5.13-6.47,3.97-12.84,8.12-19.34,12.05-20.11,12.14-40.51,23.78-61.05,35.18-61.75,34.25-126.19,63.69-190.89,91.84-95.21,41.42-193.5,76.77-293.66,104.22-34.17,9.37-68.47,18.42-103.04,26.17-12.04,2.7-24.1,5.38-36.19,7.8-4.05.81-8.1,1.68-12.15,2.49-1.82.36-4.07.37-5.76,1.17-1.24.59-.52,2.28-.32,3.31.62,3.13,1.19,6.27,1.82,9.39,1.16,5.77,1.87,12.21,4.1,17.68.51,1.25,1.5,2.13,2.08,3.31.98,2.02.18,4.09,1.77,6.08,2.08,2.58,5.75,4.01,8.73,5.25,16.08,6.67,33.97,8.34,51.11,9.99,34.57,3.35,68.97,1.07,103.6,1.06,14.13,0,28.53-.31,42.54-2.13,4.24-.55,7.61,3.22,11.88.48,2.13-1.36,3.37-3.85,4.88-5.81,2.93-3.81,5.93-7.57,8.94-11.33,10.39-12.99,21.1-25.77,31.25-38.95,3.45-4.48,6.97-8.93,10.27-13.54,1.1-1.54,2.56-4.91,4.37-5.64,2.83-1.14,7.18-.43,10.2-.44,6.24-.03,12.53-.4,18.79-.56,25.75-.63,51.72-1.35,77.35-4.09,6.57-.7,13.1-1.71,19.61-2.79,2.9-.48,6.56-.53,9.12-2.09,1.54-.94,2.02-2.4,3.17-3.66,1.23-1.34,3.18-1.58,4.34-3.12,3.12-4.14,4.86-10.24,7.19-14.91,6.3-12.59,13.46-24.67,20.71-36.74,2.77-4.61,5.56-9.21,8.34-13.81.92-1.52,1.96-4.48,3.77-5.05,8.37-2.65,17.88-3.45,26.51-5.12,18.47-3.56,36.92-7.33,55.53-10.08,6.55-.96,13.07-2.07,19.61-3.08,1.92-.3,5.94-1.82,7.72-.97,1.5.72,2.72,2.87,3.77,4.13l7.78,9.39c10.19,12.23,20.58,24.1,31.84,35.36,4.77,4.77,10.01,11.2,17.13,12.07,4.49.55,8.93-1.62,12.98-3.23,8.04-3.22,15.9-6.8,23.76-10.41,15.22-6.99,30.15-14.71,45.03-22.39,15.26-7.88,30.51-15.74,45.03-24.95,6.38-4.04,14.87-8.96,17.83-16.29,1.34-3.32.95-6.99.95-10.5,0-7.2-.59-14.37-1.08-21.55-1.68-24.48-3.79-48.85-7.17-73.21-1.06-7.65-2.07-15.31-3.33-22.93-.58-3.52-.72-7.78-2.2-11.05-1.81-3.98-7.71-8.15-12.18-7.62h0ZM1236.45,591.54"/>
  </g>
  <path class="st10" d="M778.77,861.97l-1.63-27.63-.85-13.26c6.71,6.71,13.15,15.94,22.38,19.32,8.18,3,17.83,1.59,26.24.41,15.81-2.23,32.15-4.62,47.52-9.04,7.72-2.22,15.25-4.27,21.27-9.89,10.56-9.85,16.8-23.38,24.5-35.34,6.12-9.51,13.92-18.47,23.01-25.24,13.58-10.11,29.33-17.07,45.03-23.16,9.05-3.51,20.87-7.28,25.62-16.52,4.17-8.11,2.68-19.12,2.29-27.9-.78-17.89-.48-36.05-2.17-53.87-.56-5.87-.55-11.81-1.11-17.68-.2-2.14.79-4.78-.76-6.57-1.83-2.13-5.54-1.13-6.1,1.6-1.11,5.4-.1,12.52.54,17.96,2.23,18.92,1.58,38.43,2.42,57.46.23,5.2.4,10.28.27,15.47-.08,3.37-.07,6.87-1.65,9.95-3.98,7.73-15.85,11.28-23.49,14-14.51,5.18-28.97,12.23-41.72,20.9-11.27,7.67-20.87,17.97-28.16,29.47-7.69,12.11-14.17,26.97-25.71,36.05-4.55,3.58-10.81,5.02-16.3,6.46-11.11,2.93-22.41,4.74-33.7,6.78-7.18,1.3-14.31,2.28-21.55,2.97-4.99.48-10.96.76-15.47-1.82-6.95-3.98-12.36-10.9-17.68-16.73-1.06-1.16-2.01-2.73-3.34-3.59-.82-.53-2.13-.43-2.57-1.43-1.31-2.94-.52-8.07-.74-11.29-.64-9.3-1.02-18.61-1.66-27.9-1.26-18.41-2.06-36.85-3.31-55.25-.82-12.03-1.9-24.13-2.19-36.19-.32-12.9-1.22-26.11-2.44-38.95-.3-3.18.96-12.33-4.74-11.04-4.66,1.06-2.23,9.12-2.21,12.42.04,7.25.86,14.59,1.36,21.82.4,5.86.25,11.86,1.01,17.68,1.33,10.18,1.1,20.7,1.8,30.94,1.62,23.66,2.75,47.34,4.37,71,.81,11.89.57,24.1,2.12,35.91,1.24,9.47,1.66,19.74,1.77,29.28.03,2.86.48,5.71.55,8.56.02.96-.31,2.62.33,3.43.93,1.18,5.44.44,6.86.44M757.23,869.43c2.09-1.5,5.62-4.99,6.47-7.46.48-1.39,0-3.01-.09-4.42-.2-2.95-.25-5.9-.53-8.84-.88-9.27-.78-18.63-1.66-27.9-.96-10.09-1.04-20.28-1.73-30.39-1.61-23.56-2.76-47.16-4.37-70.72-.82-11.98-.56-24.28-2.12-36.19-1.74-13.27-1.44-26.98-2.35-40.33-.23-3.37.83-11.91-3.57-12.71-6.24-1.14-3.6,9.48-3.59,12.71.02,5.6.7,11.27,1.08,16.85.59,8.64.63,17.35,1.45,25.97,3.2,33.57,3.75,67.46,6.05,101.11,1.15,16.84,1.88,33.71,3.04,50.55.72,10.53,1.91,21.22,1.91,31.77h0ZM757.23,869.43"/>
  <path class="st1" d="M975.03,261.7c-6.68,1.04-13.13,2.98-19.89,3.7-50.22,5.38-101.04,3.53-151.39,6.98-13.23.91-26.58.88-39.78,2.14-5.41.51-12.24.18-12.65,7.51-.21,3.84,1.69,10.16,5.47,11.75,4.5,1.89,10.95.57,15.75.69l34.26.83c43.51,1.07,88.65,4.62,131.5-5.07,8.79-1.99,17.42-4.51,25.97-7.36,5.47-1.82,11.38-3.7,16.3-6.76,7.33-4.56,2.84-15.7-5.53-14.39M1079.17,300.1c-3.14.35-5.94,1.85-7.32,4.85-1.54,3.36-1.48,7.47-2.32,11.05-1.57,6.64-3.64,13.23-6.06,19.61-8.49,22.42-19.56,43.05-32.39,63.26-4.11,6.47-8.4,12.83-12.85,19.06-2.12,2.98-5.59,6.36-6.54,9.95-2.14,8.09,5.94,9.73,11.95,9.67,4.19-.05,6.23-3.34,8.53-6.35,4.42-5.79,9.02-11.44,13.57-17.13,5.19-6.48,10.03-13.62,15.76-19.62,10.63-11.12,23.28-20.23,35.63-29.32,6.26-4.6,12.69-8.95,18.79-13.78,2.98-2.36,6.55-5.05,7.72-8.84,1.12-3.62.04-7.54-2.78-10.1-2.97-2.7-6.77-4.53-9.92-7.03-6.8-5.4-13.14-11.34-19.34-17.41-3.35-3.28-7.05-8.49-12.43-7.89M1083.87,320.98l2.21,2.49-3.04.28.83-2.76M1095.75,345.57c1.19,1.88-.52,2.88-2.21,3.59l2.21-3.59M1133.6,378.03c-4.88,1.12-6.89,6.84-8.64,10.9-4.52,10.47-8.98,21.02-14.08,31.22-9,18-18.08,35.86-28.61,53.04-13.07,21.33-27.97,41.67-43.42,61.33-5.02,6.38-9.9,12.91-15.19,19.06-2.55,2.96-6.75,6.57-7.59,10.5-.57,2.66.73,4.23,1.38,6.63.66,2.43-.1,4.43,1.67,6.62,2.96,3.67,7.98,2.41,12.01,1.96,10.55-1.19,21.02-3.03,31.49-4.78,26.3-4.38,52.35-10.34,78.73-14.22l35.64-5.25c7.15-1.05,14.64-1.76,21.55-3.95,1.62-.51,3.31-1.15,4.7-2.14,10.96-7.85-1.47-22.09-5.87-30.17-18.21-33.48-30.02-69.24-42.02-105.25-3.16-9.48-5.69-19.5-10.2-28.45-2.27-4.51-6.06-8.3-11.53-7.04h0ZM1133.6,378.03"/>
  <path class="st19" d="M800.76,652.71c-26.72,3.51-53.84,4.79-80.67,7.39-4.32.42-8.67.75-12.98,1.25-2.27.27-4.38.31-5.92,2.3-1.4,1.8-1.11,3.7-.99,5.79.1,1.76.31,3.55,1.5,4.95,2.01,2.36,4.64,1.84,7.35,1.69,5.8-.32,11.62-1.06,17.4-1.62,18.11-1.75,36.28-3.67,54.42-4.99,5.8-.43,11.63-.92,17.4-1.6,2.36-.28,5.02,0,7.18-1.14,6.43-3.39,2.58-14.98-4.7-14.02M811.26,743.6c-26.72,3.51-53.84,4.79-80.67,7.39-4.32.42-8.67.75-12.98,1.25-2.27.27-4.38.31-5.92,2.3-1.4,1.8-1.11,3.7-.99,5.79.1,1.76.31,3.55,1.5,4.95,2.01,2.36,4.64,1.84,7.35,1.69,5.8-.32,11.62-1.06,17.4-1.62,18.11-1.75,36.28-3.67,54.42-4.99,5.8-.43,11.63-.92,17.4-1.6,2.36-.28,5.03,0,7.18-1.14,6.43-3.39,2.58-14.98-4.7-14.02h0ZM811.26,743.6"/>
  <path class="st18" d="M383.47,628.5c-6.19.99-5.94,6.36-6.8,11.2-.65,3.63-1.91,7.11-4.33,9.95-4.19,4.89-9.81,6.38-15.94,7.1-3.49.41-7.68-.24-10.49,2.34-5.25,4.82-1.15,12.98,5.51,12.93,14.04-.1,28.71-4.55,35.83-17.68,2.91-5.37,5.37-12.85,4.73-19.06-.43-4.19-4.27-7.46-8.52-6.79h0ZM383.47,628.5"/>
  <path class="st0" d="M345.8,597.74c-7.75,1.02-15.44,1.5-22.93,4.03-3.57,1.2-7.39,2.83-9.85,5.8-2.9,3.5-3.21,8.65-3.73,12.98-1.22,10.19-.54,20.34,1.61,30.39.85,3.98,1.21,10.13,4.52,12.89,2.58,2.15,6.21,2.97,9.39,3.75,8.32,2.03,16.32,1.75,24.86.69,11.28-1.4,25.1-2.45,32.28-12.35,3.94-5.43,4.46-12.03,4.46-18.51,0-12.17-1.55-25.65-11.88-33.79-7.62-6-19.34-7.1-28.73-5.87h0ZM345.8,597.74"/>
  <path class="st4" d="M366.79,599.75c-3.38,17.43-10.38,34.07-19.18,49.45-3.99,6.97-9.2,13.24-13.14,20.17,9.88,0,19.59-1.32,29.28-3.26,5.95-1.19,12.06-2.75,16.22-7.51,5.79-6.62,6.43-14.24,6.43-22.65s-.83-17.49-5.62-24.86c-3.28-5.04-7.93-9.89-13.99-11.33h0ZM366.79,599.75"/>
  <path class="st6" d="M317.37,603.38c-1.83,1.24-3.73,2.37-5.1,4.14-3.11,4.03-3.4,10.3-3.76,15.19-.66,8.95-.03,17.4,1.57,26.24.73,4.04,1.18,10.26,3.82,13.53,1.91,2.37,5.82,3.82,8.73,4.42l-2.69-16.02-2.54-27.07v-13.54s-.02-6.91-.02-6.91ZM317.37,603.38"/>
  <path class="st7" d="M507.96,429.42c-6.72,1.06-10.06,8.72-11.76,14.52-2.96,10.12-4.28,20.68-6.71,30.94-1.95,8.24-5.17,16.32-5.55,24.86-.31,7.13-1.14,21.95,9.66,20.38,2.68-.39,3.84-2.44,5.42-4.3,1.13-1.33,2.69-2.07,3.59-3.65,1.61-2.82,1.56-6.44,3.03-9.39,3.14-6.27,8.65-11.1,11.31-17.68,3.87-9.58,2.22-22.29,1.53-32.32-.51-7.51,2.26-25.37-10.52-23.36h0ZM507.96,429.42"/>
  <path class="st3" d="M535.39,318.71v.83c8.27,0,16.59.62,24.86.83,28.33.69,57.08.68,85.36-.56,15.67-.69,31.32-1.43,46.96-2.5,10.72-.73,21.57-2.15,32.32-2.18v-.83c-39.55-.81-79.31-.06-118.79,1.67-23.54,1.03-47.14,2.75-70.72,2.75M445.33,537.23c-3.83,6.16-4.95,14.85-6.6,21.82-3.81,16.09-6.79,32.4-9.98,48.62-6.6,33.54-13.98,66.91-21.39,100.28-2.38,10.71-5.05,21.37-7.59,32.05-1.33,5.6-3.33,11.61-3.35,17.4h.83c1.01-7.92,3.87-15.85,6.15-23.48,3.41-11.35,6.61-22.79,9.62-34.26,9.55-36.33,17.77-73.04,23.25-110.23,1.9-12.87,3.61-25.97,6.4-38.68.69-3.14,1.32-6.32,2.27-9.39.41-1.3,1.24-2.95.37-4.14M1036.52,584.75v.83c37.69,1.62,76.53.67,113.82-5.5,15.75-2.61,34-5.27,48.07-13.28v-.55l-.28-.28c-8.72,2.02-17.11,4.91-25.97,6.51-26.57,4.79-53.6,6.17-80.39,8.73-18.29,1.75-36.87,3.55-55.25,3.55M1036.52,620.66v.83l13.81-1.33,27.9-2.49,62.43-6.48,53.32-7.66v-.83c-9.09,0-18.28,1.01-27.35,1.63-31.41,2.15-62.74,6-93.93,10.6-12.07,1.78-24.1,4.19-36.19,5.73M793.69,642.49c12.72-.03,25.71-1.32,38.4-2.18,29.82-2.04,59.56-4.15,89.23-8.28,10.01-1.39,19.95-2.89,29.83-5.01,2.06-.44,8.67-.97,9.39-3.04-9.44.08-19.31,2.37-28.73,3.27-32.68,3.11-65.36,6.66-98.07,9.7-10.23.95-20.48,2.21-30.66,3.53-1.99.26-8.73,0-9.39,2.01M1222.44,627.02l-.28.28c3.86,18.65,8.61,37.32,13.22,55.8,3.03,12.12,6.79,24.51,7.77,37.02,1.81-.6,1.1-3.94,1.1-5.53,0-5.7-.45-11.48-1.26-17.13-2.27-15.71-6.52-31.04-11.35-46.14-2.6-8.14-5.18-16.5-8.66-24.31h-.55M491.74,670.11v.83c15.15,0,30.47-1.98,45.58-3.01,24.8-1.7,49.69-3.96,74.31-7.6,9.31-1.38,18.65-2.68,27.9-4.41,2.03-.38,8.14-.52,8.84-2.65l-31.49,2.72-67.96,6.72-57.18,7.41M307.76,756.86l4.7,3,9.39,6,28.18,20.86,8.29,6.87,4.7,3.61c-.63-4.74-7-10.3-10.22-13.54-9.3-9.35-20.26-16.97-32.32-22.34-3.88-1.73-8.37-4.37-12.71-4.46M1060.55,853.82c.59,1.75,3.35,2.91,4.7,4.17,3.22,3,5.99,6.33,8.52,9.92,6.77,9.59,10.43,20.67,13.85,31.77,1.28,4.18,2.35,8.42,3.21,12.71.3,1.49.13,4.09,1.49,4.97.76-17.86-3.43-37.96-15.13-51.94-3.74-4.47-10.37-11.32-16.64-11.6M350.85,907.97v.55c1.79.45,3.82-.33,5.52-.92,4.11-1.42,7.9-3.51,11.6-5.76,4.63-2.81,9.44-6.01,13.25-9.89,9.66-9.86,12.38-22.94,11.34-36.19-1.66.55-1.37,4.22-1.64,5.8-.95,5.59-2.93,11.05-5.63,16.02-4.06,7.48-9.8,13.12-16.21,18.58-5.65,4.82-11.27,9.14-18.23,11.8h0ZM350.85,907.97"/>
</svg>