<?xml version="1.0" encoding="UTF-8"?>
<svg xmlns="http://www.w3.org/2000/svg" version="1.1" viewBox="0 0 1280 1024">
  <!-- Generator: Adobe Illustrator 29.5.1, SVG Export Plug-In . SVG Version: 2.1.0 Build 141)  -->
  <defs>
    <style>
      .st0 {
        stroke-width: 25px;
      }

      .st0, .st1 {
        fill: none;
        stroke: #3a2409;
        stroke-linecap: round;
        stroke-linejoin: round;
      }

      .st2 {
        fill: #848484;
      }

      .st3 {
        fill: #3f3f3f;
      }

      .st4 {
        opacity: .4;
      }

      .st4, .st5 {
        fill: #fff;
      }

      .st4, .st6 {
        mix-blend-mode: overlay;
      }

      .st7 {
        fill: #bababa;
      }

      .st8 {
        fill: #2f8939;
      }

      .st9 {
        fill: #e2e2e2;
      }

      .st10 {
        fill: #b2b2b2;
      }

      .st11 {
        fill: #3b7cbc;
      }

      .st12 {
        isolation: isolate;
      }

      .st13 {
        fill: #f9dd82;
      }

      .st14 {
        fill: #49ba59;
      }

      .st1 {
        stroke-width: 35px;
      }

      .st15 {
        fill: #7add85;
      }

      .st16 {
        fill: #efe3e1;
      }

      .st17 {
        fill: #353535;
      }

      .st18 {
        fill: #bc4b4b;
      }

      .st6 {
        fill: #231f20;
        opacity: .6;
      }

      .st19 {
        fill: #494242;
      }

      .st20 {
        fill: #d1d1d1;
      }

      .st21 {
        fill: #3a2409;
      }

      .st22 {
        fill: #557751;
      }

      .st23 {
        fill: #b5b5b5;
      }
    </style>
  </defs>
  <g class="st12">
    <g id="Layer_1">
      <g>
        <path class="st13" d="M1152.64,793.39c-54.63,70.41,44.25,120.93,44.25,120.93H110.85s-80.2-159.98,34.34-305.76c89.95-114.47,195.26-115.31,253.63-188.41,15.96-20,28.41-45.39,36.08-80,35.7-161.13,152.23-257.28,293.82-233.33,141.59,23.95,109.77,168.27,231.7,253,6.08,4.23,12.12,8.26,18.11,12.11,114.05,73.38,210.04,83.7,252.15,210.21,44.32,133.15-43.04,166.14-78.04,211.25Z"/>
        <g>
          <circle class="st21" cx="563.44" cy="836.25" r="10.77"/>
          <circle class="st21" cx="796.01" cy="370.8" r="10.77" transform="translate(-29.05 671.47) rotate(-45)"/>
          <circle class="st21" cx="1073.01" cy="602.8" r="10.77" transform="translate(239.81 1508.61) rotate(-76.72)"/>
          <circle class="st21" cx="319.26" cy="657.28" r="10.77" transform="translate(-393.79 816.98) rotate(-76.72)"/>
          <circle class="st21" cx="728.07" cy="316.15" r="6.44" transform="translate(253.1 952.1) rotate(-76.72)"/>
          <circle class="st21" cx="1112.67" cy="499.76" r="6.44" transform="translate(-106.55 463.84) rotate(-22.5)"/>
          <circle class="st21" cx="166.83" cy="618.66" r="6.44" transform="translate(-224.05 110.94) rotate(-22.5)"/>
          <circle class="st21" cx="1112.67" cy="698.17" r="6.44" transform="translate(-182.48 478.94) rotate(-22.5)"/>
          <circle class="st21" cx="319.26" cy="784.68" r="6.44" transform="translate(-275.98 181.9) rotate(-22.5)"/>
        </g>
        <g>
          <g>
            <path class="st8" d="M62.71,801.59c.78,1.66,1.5,3.29,2.16,4.92,6.36,15.65,7.56,30.82,11.32,65.56,4.15,38.35,46.86,44.42,46.86,44.42h113.01s3.89-23.69-19.95-29.91c-23.84-6.22-44.57-34.2-43.53-59.6,1.04-25.4-17.62-47.15-40.42-50.48-14.75-2.15-23.86-17.47-35.18-26.61-6.19-5-13.04-8.15-21.83-6.31-24.87,5.21-20.73,40.4-12.44,58.01Z"/>
            <path class="st14" d="M62.71,801.59c.78,1.66,1.5,3.29,2.16,4.92l.78-.18c4.28-.97,6.64-5.56,4.98-9.62-3.19-7.8-6.68-20.33-2.5-31.57,4.17-11.22,12.38-10.94,17.96-9.15,3.62,1.16,7.57-.41,9.49-3.69l1.4-2.4c-6.19-5-13.04-8.15-21.83-6.31-24.87,5.21-20.73,40.4-12.44,58.01Z"/>
            <path class="st21" d="M122.44,920.76c-.47-.07-11.62-1.71-23.39-8.34-15.92-8.97-25.31-22.77-27.16-39.89-.31-2.86-.6-5.59-.88-8.2-3.43-32.01-4.84-45.25-12.21-60.9-5.43-11.53-10.67-34.37-2.88-50.01,3.72-7.47,10.06-12.33,18.34-14.07,16.08-3.37,26.6,7.55,35.88,17.19,7.14,7.41,13.89,14.42,22.63,15.69,12.26,1.78,23.57,8.35,31.87,18.5,8.43,10.31,12.78,23.25,12.24,36.43-.95,23.16,18.27,49.5,40.31,55.25,14.26,3.72,19.81,13.05,21.96,20.23,2.27,7.57,1.21,14.28,1.16,14.56-.34,2.09-2.15,3.62-4.26,3.62h-113.01c-.2,0-.41-.01-.61-.04ZM230.8,904.83c-2.25-7.2-7.56-11.93-15.78-14.08-26.02-6.79-47.87-36.67-46.76-63.95.91-22.3-15.57-42.94-36.73-46.03-11.67-1.7-19.77-10.11-27.6-18.25-8.85-9.18-16.49-17.12-27.89-14.73-5.76,1.21-9.81,4.3-12.38,9.47-5.69,11.42-2.72,30.41,2.96,42.48,7.98,16.96,9.45,30.63,12.98,63.66.28,2.61.57,5.33.88,8.19,1.55,14.35,9.15,25.51,22.58,33.16,9.43,5.37,18.65,7.12,20.33,7.41h108.57c-.04-2-.31-4.61-1.16-7.34Z"/>
            <path class="st21" d="M75.64,795.43c.58-2.31,2.92-3.72,5.24-3.14,1.68.42,10.05,2.59,18.85,6.3-8.2-10.67-14.99-18.22-15.14-18.38-1.6-1.77-1.46-4.5.31-6.1,1.77-1.6,4.5-1.46,6.1.31,1.42,1.57,34.93,38.84,43.92,67.13.29.91.58,1.82.88,2.72,9.38-16.02,6.27-38.89,6.22-39.28-.34-2.36,1.29-4.55,3.65-4.9,2.36-.35,4.55,1.29,4.9,3.65.19,1.33,4.41,31.68-11.23,50.5,4.47,11.78,9.63,22.55,15.26,31.93.13.18.25.38.35.58,6.68,11.01,14,20.05,21.58,26.45,1.82,1.54,2.05,4.26.51,6.09-.85,1.01-2.07,1.53-3.3,1.53-.98,0-1.97-.33-2.78-1.02-7.82-6.6-15.34-15.73-22.22-26.73-.14,0-.29,0-.43,0-27.02,0-50-19.92-51-20.8-1.79-1.57-1.97-4.3-.39-6.09,1.57-1.79,4.3-1.97,6.09-.39.2.18,18.73,16.24,40.54,18.4-6.47-11.84-12.2-25.38-16.86-40.03-2.69-8.47-7.93-18.03-13.83-27.12-5.02-6.95-23.34-13.68-34.08-16.37-2.31-.58-3.72-2.92-3.14-5.24Z"/>
          </g>
          <g>
            <path class="st14" d="M111.48,832.4c3.81,8.26,9.26,16.38,16.53,24.06.68.72,1.37,1.43,2.07,2.13,3.43,3.43,6.28,6.88,8.65,10.32,6.96,10.07,9.71,19.89,10.55,27.96,1.2,11.61-1.58,19.62-1.58,19.62h159.9s5.93-21.62-12.72-28.88c-11.56-4.49-25.91-10.58-32.68-18.78-4.16-5.03-5.47-10.86-1.52-17.6,10.36-17.73,16.58-45.49,0-71.39-16.58-25.89-38.35-22.82-50.5-46.88-12.15-24.07-7.54-51.59-38.64-59.16-1.61-.39-3.17-.68-4.7-.86-28.05-3.45-42.81,26.21-39.81,47.97,3.16,22.95-3.16,22.65-15.6,49.14-8.74,18.62-9.8,40.99.06,62.36Z"/>
            <path class="st8" d="M262.2,868.83c-7.2,5.99-15.98,11.03-26.48,13.44-4.21.97-7.02,4.94-6.47,9.23.83,6.47,1.88,15.97,2.27,24.99h76.08s5.93-21.62-12.72-28.88c-11.56-4.49-25.91-10.58-32.68-18.78Z"/>
            <path class="st8" d="M138.73,868.91c6.96,10.07,9.71,19.89,10.55,27.96,2.92,7.25,3.99,14,4.18,19.62h67.59l-1.17-17.29-4.91-14.49s-21.28-10.84-40.31-7.85c-12.63,1.98-23.71-3.05-29.73-6.65-1.9-1.14-4.09-1.58-6.2-1.31Z"/>
            <path class="st15" d="M111.48,832.4l2.15-.86c6.01-2.39,9.12-9.03,7.17-15.2-1.05-3.32-2.11-7.37-2.95-12.09-2.59-14.51.52-25.39,12.44-44.04,11.92-18.65,6.74-33.16,9.33-54.92,1.67-13.99,11.03-19.34,17.5-21.37,4.19-1.32,7.47-4.58,8.93-8.72l.79-2.26c-28.05-3.45-42.81,26.21-39.81,47.97,3.16,22.95-3.16,22.65-15.6,49.14-8.74,18.62-9.8,40.99.06,62.36Z"/>
            <path class="st21" d="M144.18,918.99c-.81-1.14-1.02-2.6-.56-3.92.09-.27,9.18-27.66-16.59-53.43-13.77-13.77-22.66-30.07-25.68-47.13-2.79-15.74-.66-31.75,6.17-46.31,3.63-7.74,6.75-13.23,9.25-17.64,6.01-10.58,8.03-14.15,5.98-29.08-2.19-15.89,3.98-33.46,15.36-43.74,6.58-5.95,17.91-12.19,34.45-8.16,24.21,5.9,29.16,23.34,33.94,40.21,2,7.05,4.07,14.35,7.53,21.2,5.6,11.09,13.35,15.79,22.33,21.23,9.01,5.46,19.23,11.65,27.95,25.27,8.08,12.62,11.71,26.53,10.78,41.36-.94,15.05-6.33,27.09-10.69,34.54-1.83,3.13-2.24,5.86-1.28,8.6,3.48,9.97,24.39,18.11,33.32,21.58,9.18,3.57,14.74,10.7,16.07,20.61.95,7.1-.68,13.18-.75,13.44-.51,1.88-2.22,3.18-4.16,3.18h-159.9c-1.4,0-2.71-.67-3.52-1.81ZM303.95,905.35c-.91-6.8-4.39-11.28-10.64-13.71-17.43-6.78-34.14-14.71-38.35-26.79-1.8-5.16-1.13-10.48,1.98-15.8,4.8-8.22,19.01-37.33.09-66.88-7.64-11.93-16.54-17.33-25.15-22.55-9.27-5.62-18.85-11.42-25.56-24.72-3.83-7.59-6.02-15.29-8.13-22.74-4.67-16.47-8.36-29.47-27.68-34.18-10.19-2.48-19.4-.35-26.62,6.18-9.2,8.31-14.38,23.17-12.59,36.15,2.46,17.83-.71,23.41-7.02,34.52-2.43,4.28-5.46,9.61-8.95,17.04-13.18,28.07-6.52,59.34,17.8,83.66,15.38,15.38,19.67,31.41,20.55,42.14.49,5.93.03,10.94-.56,14.49h150.85c.21-1.82.32-4.25-.03-6.83Z"/>
            <path class="st21" d="M129.97,788.69c1.76-1.61,4.49-1.48,6.1.28.17.19,17.28,18.78,32.06,23.4,7.83,2.45,15.33,5.61,21.08,8.26-10.07-25.13-16.12-54.52-19.42-74.79-16.73-9.61-24.16-35.09-24.48-36.21-.65-2.29.67-4.68,2.97-5.33,2.29-.66,4.68.67,5.34,2.96.06.2,4.79,16.35,14.32,26.2-.96-7.01-1.41-11.48-1.48-12.14-.23-2.37,1.5-4.49,3.87-4.72,2.37-.23,4.49,1.5,4.72,3.87.06.62,6.37,62.84,25.5,104.71,2.87,6.27,5.37,12.6,7.57,18.84,4.13-9.45,10.64-14.26,11.88-15.12,16.71-13.12,9.33-45.42,9.21-45.93-.56-2.32.87-4.65,3.19-5.2,2.32-.56,4.65.87,5.2,3.19.37,1.56,8.89,38.32-12.42,54.85-.09.07-.19.14-.29.21-.11.07-11.3,7.57-11.58,24.53,8.34,29.83,9.84,54.3,9.92,55.7.14,2.38-1.68,4.42-4.06,4.56-.08,0-.17,0-.25,0-2.27,0-4.17-1.77-4.31-4.07,0-.17-.39-6.35-1.79-16.15-4.27-3.52-20.69-15.72-46.53-19.04-2.37-.3-4.04-2.47-3.73-4.83.3-2.37,2.47-4.04,4.83-3.73,19.99,2.57,34.77,9.97,43.46,15.54-2.88-15.67-7.86-35.93-16.34-55.65-3.9-2.05-16.14-8.24-28.96-12.26-17.01-5.32-35.1-24.99-35.86-25.82-1.61-1.76-1.48-4.49.28-6.1Z"/>
          </g>
          <g>
            <path class="st14" d="M1034.25,916.49h159.9s-2.78-8.01-1.58-19.62c.84-8.07,3.59-17.89,10.55-27.96,2.37-3.43,5.22-6.89,8.65-10.32.7-.7,1.4-1.42,2.07-2.13,7.26-7.69,12.71-15.8,16.53-24.06,9.86-21.37,8.8-43.73.06-62.36-12.44-26.49-18.76-26.19-15.6-49.14,1.18-8.56-.39-18.35-4.44-26.86-6.24-13.12-18.36-23.2-35.37-21.11-1.53.19-3.1.47-4.71.86-19.84,4.83-25.15,17.78-29.54,32.78-2.5,8.51-4.7,17.67-9.1,26.39-12.15,24.07-33.91,20.99-50.5,46.88-16.58,25.9-10.36,53.66,0,71.39,3.94,6.74,2.64,12.57-1.52,17.6-6.78,8.2-21.12,14.29-32.68,18.78-18.65,7.25-12.72,28.88-12.72,28.88Z"/>
            <path class="st15" d="M1140.77,706.57h0c4.6,3.74,11.49,2.44,14.36-2.74,3.68-6.66,9.94-14.43,19.89-17.2,10.49-2.91,18.07,2.24,22.69,7.31,3.38,3.71,9.17,3.82,12.61.16l.06-.07c-6.24-13.12-18.36-23.2-35.37-21.11-1.53.19-3.1.47-4.71.86-19.84,4.83-25.15,17.78-29.54,32.78Z"/>
            <path class="st8" d="M1079.65,868.83c7.2,5.99,15.98,11.03,26.48,13.44,4.21.97,7.02,4.94,6.47,9.23-.83,6.47-1.88,15.97-2.27,24.99h-76.08s-5.93-21.62,12.72-28.88c11.56-4.49,25.91-10.58,32.68-18.78Z"/>
            <path class="st8" d="M1203.12,868.91c-6.96,10.07-9.71,19.89-10.55,27.96-2.92,7.25-3.99,14-4.18,19.62h-67.59l1.17-17.29,4.91-14.49s21.28-10.84,40.31-7.85c12.63,1.98,23.71-3.05,29.73-6.65,1.9-1.14,4.09-1.58,6.2-1.31Z"/>
            <path class="st21" d="M1194.14,920.81h-159.9c-1.94,0-3.65-1.3-4.16-3.18-.07-.26-1.71-6.33-.75-13.44,1.33-9.91,6.89-17.04,16.07-20.61,8.93-3.47,29.85-11.61,33.32-21.58.96-2.74.55-5.47-1.28-8.6-4.35-7.45-9.74-19.49-10.69-34.54-.93-14.82,2.7-28.74,10.78-41.36,8.72-13.62,18.94-19.81,27.95-25.27,8.98-5.44,16.73-10.14,22.33-21.23,3.46-6.85,5.53-14.15,7.53-21.2,4.79-16.87,9.73-34.32,33.94-40.21,16.55-4.03,27.87,2.21,34.45,8.16,11.38,10.27,17.55,27.85,15.36,43.74-2.06,14.93-.03,18.5,5.98,29.08,2.5,4.41,5.62,9.9,9.25,17.64,6.83,14.55,8.97,30.57,6.17,46.31-3.03,17.06-11.91,33.36-25.68,47.13-25.77,25.77-16.69,53.16-16.59,53.43.46,1.32.25,2.78-.56,3.92-.81,1.14-2.12,1.81-3.52,1.81ZM1037.86,912.17h150.85c-.59-3.55-1.05-8.56-.56-14.49.89-10.73,5.17-26.76,20.55-42.14,24.32-24.32,30.98-55.6,17.8-83.66-3.49-7.43-6.52-12.76-8.95-17.04-6.31-11.11-9.48-16.69-7.02-34.52,1.79-12.98-3.39-27.84-12.59-36.15-7.22-6.52-16.43-8.66-26.62-6.18-19.32,4.7-23.01,17.71-27.68,34.18-2.11,7.45-4.3,15.15-8.13,22.74-6.71,13.3-16.29,19.11-25.56,24.72-8.61,5.22-17.51,10.61-25.15,22.55-18.92,29.55-4.71,58.66.09,66.88,3.11,5.33,3.78,10.64,1.98,15.8-4.21,12.07-20.92,20.01-38.35,26.79-6.25,2.43-9.73,6.91-10.64,13.71-.35,2.58-.23,5.01-.03,6.82Z"/>
            <path class="st21" d="M1104.25,780.96c.55-2.32,2.89-3.75,5.2-3.19,2.32.56,3.75,2.89,3.19,5.2-.12.51-7.5,32.81,9.21,45.93,1.24.85,7.75,5.67,11.88,15.12,2.2-6.24,4.7-12.57,7.57-18.84,4.21-9.21,7.79-19.4,10.83-29.7-12.98-12.29-17.07-36.27-17.25-37.36-.39-2.35,1.2-4.58,3.56-4.96,2.35-.39,4.58,1.2,4.96,3.56.94,5.68,4.58,19.75,11.47,28.89,8.69-33.21,11.88-64.69,11.93-65.13.23-2.37,2.35-4.11,4.72-3.87,2.37.23,4.11,2.35,3.87,4.72-.07.66-.52,5.13-1.48,12.14,9.53-9.85,14.26-26,14.32-26.2.66-2.29,3.05-3.62,5.34-2.96,2.29.66,3.62,3.04,2.97,5.33-.32,1.12-7.76,26.6-24.48,36.21-3.3,20.27-9.35,49.66-19.42,74.79,5.75-2.66,13.25-5.81,21.08-8.26,14.78-4.62,31.89-23.22,32.06-23.4,1.61-1.76,4.34-1.88,6.1-.28,1.76,1.61,1.89,4.34.28,6.1-.76.83-18.85,20.5-35.86,25.82-12.82,4.01-25.06,10.21-28.96,12.26-8.47,19.72-13.45,39.98-16.34,55.65,8.69-5.57,23.47-12.97,43.46-15.54,2.36-.3,4.53,1.37,4.83,3.73.3,2.37-1.37,4.53-3.73,4.83-25.84,3.32-42.26,15.52-46.53,19.04-1.4,9.8-1.78,15.99-1.79,16.15-.13,2.3-2.04,4.07-4.31,4.07-.08,0-.17,0-.25,0-2.38-.14-4.2-2.18-4.06-4.56.08-1.4,1.58-25.87,9.92-55.7-.27-16.96-11.46-24.45-11.58-24.53-.1-.07-.2-.13-.29-.21-21.3-16.52-12.79-53.29-12.42-54.85Z"/>
          </g>
        </g>
        <polyline class="st1" points="20.99 914.33 54.59 914.33 126.96 914.33 151.14 914.33 192.1 914.33 218.11 914.33 224.14 914.33 271.04 914.33 1035.73 914.33 1043.85 914.33 1084.79 914.33 1094.61 914.33 1143.69 914.33 1197.01 914.33 1259.01 914.33"/>
        <g>
          <g>
            <path class="st3" d="M385.4,453.72v60.53c0,2.64-2.14,4.77-4.77,4.77h-21.04c-2.64,0-4.77-2.13-4.77-4.77v-60.53c0-3.25,1.09-6.4,3.09-8.96l1.68-2.15c1.19-1.52,1.86-3.37,1.92-5.3.1-3.46.42-7.04.83-10.7,0-.09.02-.17.03-.26.7-6.21,1.65-12.66,2.27-19.19h.15c-.55,0-.99-.45-.99-1v-5.04c0-.55.45-1,.99-1h10.65c.55,0,1,.45,1,1v5.04c0,.55-.45,1-1,1h.15c.62,6.53,1.57,12.97,2.27,19.18,0,.09.02.18.03.27.41,3.66.72,7.24.83,10.7.06,1.93.73,3.79,1.92,5.3l1.68,2.15c2,2.56,3.09,5.71,3.09,8.96Z"/>
            <path class="st16" d="M377.88,426.61h-15.55c0-.09.02-.17.03-.26.7-6.21,1.65-12.66,2.27-19.19h.15c-.55,0-.99-.45-.99-1v-5.04c0-.55.45-1,.99-1h10.65c.55,0,1,.45,1,1v5.04c0,.55-.45,1-1,1h.15c.62,6.53,1.57,12.97,2.27,19.18,0,.09.02.18.03.27Z"/>
            <path class="st0" d="M385.4,453.72v60.53c0,2.64-2.14,4.77-4.77,4.77h-21.04c-2.64,0-4.77-2.13-4.77-4.77v-60.53c0-3.25,1.09-6.4,3.09-8.96l1.68-2.15c1.19-1.52,1.86-3.37,1.92-5.3.11-3.54.44-7.2.86-10.96.7-6.21,1.65-12.66,2.27-19.19h.15c-.55,0-.99-.45-.99-1v-5.04c0-.55.45-1,.99-1h10.65c.55,0,1,.45,1,1v5.04c0,.55-.45,1-1,1h.15c.62,6.53,1.57,12.97,2.27,19.18.42,3.76.75,7.42.86,10.97.06,1.93.73,3.79,1.92,5.3l1.68,2.15c2,2.56,3.09,5.71,3.09,8.96Z"/>
          </g>
          <g>
            <path class="st22" d="M435.34,453.72v60.53c0,2.64-2.14,4.77-4.77,4.77h-21.04c-2.64,0-4.77-2.13-4.77-4.77v-60.53c0-3.25,1.09-6.4,3.09-8.96l1.68-2.15c1.19-1.52,1.86-3.37,1.92-5.3.1-3.46.42-7.04.83-10.7,0-.09.02-.17.03-.26.7-6.21,1.65-12.66,2.27-19.19h.15c-.55,0-.99-.45-.99-1v-5.04c0-.55.45-1,.99-1h10.65c.55,0,1,.45,1,1v5.04c0,.55-.45,1-1,1h.15c.62,6.53,1.57,12.97,2.27,19.18,0,.09.02.18.03.27.41,3.66.72,7.24.83,10.7.06,1.93.73,3.79,1.92,5.3l1.68,2.15c2,2.56,3.09,5.71,3.09,8.96Z"/>
            <path class="st0" d="M435.34,453.72v60.53c0,2.64-2.14,4.77-4.77,4.77h-21.04c-2.64,0-4.77-2.13-4.77-4.77v-60.53c0-3.25,1.09-6.4,3.09-8.96l1.68-2.15c1.19-1.52,1.86-3.37,1.92-5.3.11-3.54.44-7.2.86-10.96.7-6.21,1.65-12.66,2.27-19.19h.15c-.55,0-.99-.45-.99-1v-5.04c0-.55.45-1,.99-1h10.65c.55,0,1,.45,1,1v5.04c0,.55-.45,1-1,1h.15c.62,6.53,1.57,12.97,2.27,19.18.42,3.76.75,7.42.86,10.97.06,1.93.73,3.79,1.92,5.3l1.68,2.15c2,2.56,3.09,5.71,3.09,8.96Z"/>
          </g>
          <g>
            <path class="st22" d="M734.51,453.72v60.53c0,2.64-2.14,4.77-4.77,4.77h-21.04c-2.64,0-4.77-2.13-4.77-4.77v-60.53c0-3.25,1.09-6.4,3.09-8.96l1.68-2.15c1.19-1.52,1.86-3.37,1.92-5.3.1-3.46.42-7.04.83-10.7,0-.09.02-.17.03-.26.7-6.21,1.65-12.66,2.27-19.19h.15c-.55,0-.99-.45-.99-1v-5.04c0-.55.45-1,.99-1h10.65c.55,0,1,.45,1,1v5.04c0,.55-.45,1-1,1h.15c.62,6.53,1.57,12.97,2.27,19.18,0,.09.02.18.03.27.41,3.66.72,7.24.83,10.7.06,1.93.73,3.79,1.92,5.3l1.68,2.15c2,2.56,3.09,5.71,3.09,8.96Z"/>
            <path class="st0" d="M734.51,453.72v60.53c0,2.64-2.14,4.77-4.77,4.77h-21.04c-2.64,0-4.77-2.13-4.77-4.77v-60.53c0-3.25,1.09-6.4,3.09-8.96l1.68-2.15c1.19-1.52,1.86-3.37,1.92-5.3.11-3.54.44-7.2.86-10.96.7-6.21,1.65-12.66,2.27-19.19h.15c-.55,0-.99-.45-.99-1v-5.04c0-.55.45-1,.99-1h10.65c.55,0,1,.45,1,1v5.04c0,.55-.45,1-1,1h.15c.62,6.53,1.57,12.97,2.27,19.18.42,3.76.75,7.42.86,10.97.06,1.93.73,3.79,1.92,5.3l1.68,2.15c2,2.56,3.09,5.71,3.09,8.96Z"/>
          </g>
          <g>
            <path class="st22" d="M773.66,453.72v60.53c0,2.64-2.14,4.77-4.77,4.77h-21.04c-2.64,0-4.77-2.13-4.77-4.77v-60.53c0-3.25,1.09-6.4,3.09-8.96l1.68-2.15c1.19-1.52,1.86-3.37,1.92-5.3.1-3.46.42-7.04.83-10.7,0-.09.02-.17.03-.26.7-6.21,1.65-12.66,2.27-19.19h.15c-.55,0-.99-.45-.99-1v-5.04c0-.55.45-1,.99-1h10.65c.55,0,1,.45,1,1v5.04c0,.55-.45,1-1,1h.15c.62,6.53,1.57,12.97,2.27,19.18,0,.09.02.18.03.27.41,3.66.72,7.24.83,10.7.06,1.93.73,3.79,1.92,5.3l1.68,2.15c2,2.56,3.09,5.71,3.09,8.96Z"/>
            <path class="st0" d="M773.67,453.72v60.53c0,2.64-2.14,4.77-4.77,4.77h-21.04c-2.64,0-4.77-2.13-4.77-4.77v-60.53c0-3.25,1.09-6.4,3.09-8.96l1.68-2.15c1.19-1.52,1.86-3.37,1.92-5.3.11-3.54.44-7.2.86-10.96.7-6.21,1.65-12.66,2.27-19.19h.15c-.55,0-.99-.45-.99-1v-5.04c0-.55.45-1,.99-1h10.65c.55,0,1,.45,1,1v5.04c0,.55-.45,1-1,1h.15c.62,6.53,1.57,12.97,2.27,19.18.42,3.76.75,7.42.86,10.97.06,1.93.73,3.79,1.92,5.3l1.68,2.15c2,2.56,3.09,5.71,3.09,8.96Z"/>
          </g>
          <g>
            <path class="st22" d="M812.82,453.72v60.53c0,2.64-2.14,4.77-4.77,4.77h-21.04c-2.64,0-4.77-2.13-4.77-4.77v-60.53c0-3.25,1.09-6.4,3.09-8.96l1.68-2.15c1.19-1.52,1.86-3.37,1.92-5.3.1-3.46.42-7.04.83-10.7,0-.09.02-.17.03-.26.7-6.21,1.65-12.66,2.27-19.19h.15c-.55,0-.99-.45-.99-1v-5.04c0-.55.45-1,.99-1h10.65c.55,0,1,.45,1,1v5.04c0,.55-.45,1-1,1h.15c.62,6.53,1.57,12.97,2.27,19.18,0,.09.02.18.03.27.41,3.66.72,7.24.83,10.7.06,1.93.73,3.79,1.92,5.3l1.68,2.15c2,2.56,3.09,5.71,3.09,8.96Z"/>
            <path class="st0" d="M812.82,453.72v60.53c0,2.64-2.14,4.77-4.77,4.77h-21.04c-2.64,0-4.77-2.13-4.77-4.77v-60.53c0-3.25,1.09-6.4,3.09-8.96l1.68-2.15c1.19-1.52,1.86-3.37,1.92-5.3.11-3.54.44-7.2.86-10.96.7-6.21,1.65-12.66,2.27-19.19h.15c-.55,0-.99-.45-.99-1v-5.04c0-.55.45-1,.99-1h10.65c.55,0,1,.45,1,1v5.04c0,.55-.45,1-1,1h.15c.62,6.53,1.57,12.97,2.27,19.18.42,3.76.75,7.42.86,10.97.06,1.93.73,3.79,1.92,5.3l1.68,2.15c2,2.56,3.09,5.71,3.09,8.96Z"/>
          </g>
          <g>
            <polygon class="st11" points="661.91 449.35 574.4 449.35 486.89 449.35 459.67 519.02 574.4 519.02 689.13 519.02 661.91 449.35"/>
            <path class="st21" d="M689.13,523.64h-229.46c-1.53,0-2.96-.75-3.82-2.02-.86-1.26-1.04-2.87-.49-4.29l27.22-69.66c.69-1.77,2.4-2.94,4.31-2.94h175.02c1.9,0,3.61,1.17,4.31,2.94l27.22,69.66c.56,1.42.37,3.03-.49,4.29-.86,1.26-2.29,2.02-3.82,2.02ZM466.44,514.39h215.92l-23.61-60.42h-168.71l-23.61,60.42Z"/>
          </g>
          <g>
            <rect class="st18" x="470.21" y="419.76" width="208.37" height="29.6"/>
            <path class="st21" d="M678.58,453.98h-208.37c-2.55,0-4.62-2.07-4.62-4.62v-29.6c0-2.55,2.07-4.62,4.62-4.62h208.37c2.55,0,4.62,2.07,4.62,4.62v29.6c0,2.55-2.07,4.62-4.62,4.62ZM474.84,444.73h199.12v-20.35h-199.12v20.35Z"/>
          </g>
          <g>
            <rect class="st23" x="483.24" y="339.66" width="85.15" height="80.1"/>
            <rect class="st5" x="557.97" y="339.66" width="10.42" height="80.1"/>
            <path class="st21" d="M568.39,424.38h-85.15c-2.55,0-4.62-2.07-4.62-4.62v-80.1c0-2.55,2.07-4.62,4.62-4.62h85.15c2.55,0,4.62,2.07,4.62,4.62v80.1c0,2.55-2.07,4.62-4.62,4.62ZM487.87,415.13h75.9v-70.85h-75.9v70.85Z"/>
          </g>
          <g>
            <rect class="st23" x="581.69" y="339.66" width="85.15" height="80.1"/>
            <rect class="st5" x="656.41" y="339.66" width="10.42" height="80.1"/>
            <path class="st21" d="M666.84,424.38h-85.15c-2.55,0-4.62-2.07-4.62-4.62v-80.1c0-2.55,2.07-4.62,4.62-4.62h85.15c2.55,0,4.62,2.07,4.62,4.62v80.1c0,2.55-2.07,4.62-4.62,4.62ZM586.31,415.13h75.9v-70.85h-75.9v70.85Z"/>
          </g>
          <g>
            <path class="st18" d="M180.88,487.59h0c0,6.72,5.45,12.17,12.17,12.17h0c2.82,0,5.46-1.39,7.06-3.72h0c2.18-3.17,5.78-5.07,9.63-5.07h17.07c2.78,0,5.44,1.1,7.41,3.07h0c3.66,3.66,8.63,5.72,13.81,5.72h583.39v-24.34H193.05c-6.72,0-12.17,5.45-12.17,12.17Z"/>
            <path class="st21" d="M831.42,504.38H248.03c-6.45,0-12.52-2.51-17.08-7.08-1.11-1.11-2.57-1.71-4.14-1.71h-17.07c-2.33,0-4.5,1.14-5.81,3.06-2.46,3.59-6.53,5.73-10.87,5.73-9.26,0-16.79-7.53-16.79-16.79s7.53-16.79,16.79-16.79h638.37c2.55,0,4.62,2.07,4.62,4.62v24.34c0,2.55-2.07,4.62-4.62,4.62ZM209.74,486.35h17.07c4.03,0,7.83,1.57,10.68,4.42,2.82,2.82,6.56,4.37,10.54,4.37h578.77v-15.09H193.05c-4.16,0-7.54,3.38-7.54,7.54s3.38,7.54,7.54,7.54c1.3,0,2.51-.64,3.25-1.71,3.04-4.43,8.07-7.08,13.44-7.08Z"/>
          </g>
          <g>
            <path class="st10" d="M1095.39,488.59l-3.84,2.29c-4.52,2.69-11.99,8.88-13.89,10.48-5.25,8.46-15.4,22.34-30.96,33.58l-35.61-.21-8.92-.06-37.06-.22h0s-12.75-.07-12.75-.07l-24.47-.15c-13.7-9.9-22.72-22.03-29.85-32.06,0,0-9.93-6.71-15.45-9.21l-4.07-1.85c-.81-.37-1.2-1.31-.89-2.15.32-.85,1.26-1.29,2.12-1.01,2.68.89,8.19,2.82,11.29,4.54l24.33.15,20.37.12h0s89.49.54,89.49.54l12.93.08,42.11.25c.81-.74,1.76-1.52,2.83-2.29,2.9-2.06,8.16-4.57,10.73-5.76.82-.38,1.8-.04,2.22.77.41.8.13,1.77-.64,2.23Z"/>
            <path class="st2" d="M965.11,534.46l-12.75-.08c-13.34-9.33-27.38-22.8-36.99-41.74l20.37.12h0c5.89,11.67,15.62,27.99,29.38,41.69Z"/>
            <path class="st5" d="M1038.15,493.38c-4.85,10.8-13.41,26.53-27.05,41.35l-8.92-.06c7.59-12.23,17.12-28.4,23.04-41.37l12.93.08Z"/>
            <path class="st21" d="M1046.93,539.01c-.08,0-.17,0-.25,0l-118.82-.7c-.85,0-1.67-.27-2.36-.77-13.63-9.84-22.82-21.83-30.35-32.39-2.2-1.46-9.86-6.48-14.25-8.48l-4.08-1.85c-2.76-1.25-4.08-4.46-3.01-7.29,1.11-2.9,4.28-4.41,7.21-3.43,2.77.92,7.66,2.64,11.03,4.34l186.69,1.12c.65-.54,1.31-1.05,1.99-1.53,3.11-2.21,8.46-4.79,11.38-6.13,2.83-1.3,6.14-.15,7.55,2.61,1.38,2.69.43,6.03-2.18,7.58l-3.84,2.29c-3.22,1.92-8.66,6.18-12.86,9.69-6.01,9.56-16.3,23.06-31.68,34.18-.63.46-1.38.72-2.16.77ZM929.23,530.18l116.15.68c14.02-10.41,23.39-22.9,28.82-31.65.23-.37.51-.69.84-.97.19-.16.41-.34.67-.56l-178.74-1.07c1.89,1.22,3.2,2.1,3.34,2.2.4.27.76.62,1.04,1.01,7.36,10.36,15.57,21.21,27.88,30.35ZM1093.31,485.09s0,0,0,0h0s0,0,0,0Z"/>
          </g>
          <g>
            <rect class="st17" x="447.98" y="704.61" width="251.1" height="58.79"/>
            <path class="st21" d="M699.08,768.03h-251.1c-2.55,0-4.62-2.07-4.62-4.62v-58.79c0-2.55,2.07-4.62,4.62-4.62h251.1c2.55,0,4.62,2.07,4.62,4.62v58.79c0,2.55-2.07,4.62-4.62,4.62ZM452.6,758.78h241.85v-49.54h-241.85v49.54Z"/>
          </g>
          <g>
            <g>
              <path class="st19" d="M577.46,621.77c-81.09-1.21-147.81,63.54-149.03,144.63-1.21,81.09,63.54,147.81,144.63,149.03,81.09,1.21,147.81-63.54,149.03-144.63,1.21-81.09-63.54-147.81-144.63-149.03ZM573.56,882.88c-63.11-.94-113.51-52.87-112.57-115.99.94-63.11,52.87-113.51,115.99-112.57,63.12.94,113.51,52.87,112.57,115.99-.94,63.11-52.87,113.51-115.99,112.57Z"/>
              <path class="st20" d="M577.12,644.81c-68.37-1.02-124.62,53.57-125.64,121.94-1.02,68.37,53.57,124.62,121.94,125.64,68.37,1.02,124.62-53.57,125.65-121.94,1.02-68.37-53.57-124.62-121.94-125.65ZM573.56,882.88c-63.11-.94-113.51-52.87-112.57-115.99.94-63.11,52.87-113.51,115.99-112.57,63.12.94,113.51,52.87,112.57,115.99-.94,63.11-52.87,113.51-115.99,112.57Z"/>
              <path class="st5" d="M577.46,621.77c-24.34-.36-47.38,5.21-67.75,15.4,17.47-6.98,36.59-10.69,56.58-10.39,81.09,1.21,145.85,67.94,144.63,149.03-.85,56.75-33.79,105.51-81.28,129.24,53.43-21.31,91.54-73.14,92.45-134.25,1.21-81.09-63.54-147.81-144.63-149.03Z"/>
              <path class="st21" d="M573,920.06c-20.44-.31-40.22-4.61-58.78-12.79-17.92-7.9-33.95-19.06-47.65-33.18-13.7-14.12-24.38-30.48-31.74-48.63-7.62-18.79-11.33-38.69-11.02-59.13.31-20.44,4.61-40.22,12.79-58.78,7.9-17.92,19.06-33.95,33.18-47.65,14.12-13.7,30.48-24.38,48.63-31.74,18.79-7.62,38.69-11.33,59.13-11.02,20.44.31,40.22,4.61,58.78,12.79,17.92,7.9,33.95,19.06,47.65,33.18,13.7,14.12,24.38,30.48,31.74,48.63,7.62,18.79,11.33,38.69,11.02,59.13-.31,20.44-4.61,40.22-12.79,58.78-7.9,17.92-19.06,33.95-33.18,47.65-14.12,13.7-30.48,24.38-48.63,31.74-18.79,7.62-38.69,11.33-59.13,11.02ZM577.4,626.4c-78.41-1.17-143.16,61.67-144.34,140.08-1.17,78.41,61.67,143.16,140.08,144.34,78.41,1.17,143.16-61.67,144.34-140.08s-61.67-143.16-140.08-144.34ZM573.49,887.5c-31.76-.48-61.43-13.29-83.55-36.08-22.12-22.79-34.04-52.84-33.57-84.6s13.29-61.43,36.08-83.55c22.79-22.12,52.84-34.04,84.6-33.57,31.76.48,61.43,13.29,83.55,36.08,22.12,22.79,34.04,52.84,33.57,84.6-.48,31.76-13.29,61.43-36.08,83.55-22.79,22.12-52.84,34.04-84.6,33.57ZM576.91,658.95c-60.46-.9-110.39,47.55-111.29,108.01-.9,60.46,47.55,110.39,108.01,111.29,60.46.9,110.39-47.55,111.29-108.01.9-60.46-47.55-110.39-108.01-111.29Z"/>
            </g>
            <g>
              <circle class="st7" cx="575.27" cy="768.6" r="18.99" transform="translate(-384.75 775.05) rotate(-53.57)"/>
              <path class="st21" d="M574.92,792.21c-13.02-.19-23.45-10.94-23.26-23.96.19-13.02,10.94-23.45,23.96-23.26,13.02.19,23.45,10.94,23.26,23.96-.19,13.02-10.94,23.45-23.96,23.26ZM575.48,754.24c-7.92-.12-14.46,6.23-14.58,14.15-.12,7.92,6.23,14.46,14.15,14.58,7.92.12,14.46-6.23,14.58-14.15.12-7.92-6.23-14.46-14.15-14.58Z"/>
            </g>
            <g>
              <g>
                <g>
                  <line class="st7" x1="557.97" y1="655.61" x2="554.6" y2="881.02"/>
                  <path class="st21" d="M554.55,883.8c-1.53-.02-2.76-1.28-2.73-2.82l3.37-225.41c.02-1.53,1.28-2.76,2.82-2.73s2.76,1.28,2.73,2.82l-3.37,225.41c-.02,1.53-1.28,2.76-2.82,2.73Z"/>
                </g>
                <g>
                  <line class="st7" x1="595.94" y1="656.18" x2="592.57" y2="881.59"/>
                  <path class="st21" d="M592.53,884.37c-1.53-.02-2.76-1.28-2.73-2.82l3.37-225.41c.02-1.53,1.28-2.76,2.82-2.73,1.53.02,2.76,1.28,2.73,2.82l-3.37,225.41c-.02,1.53-1.28,2.76-2.82,2.73Z"/>
                </g>
              </g>
              <g>
                <g>
                  <line class="st7" x1="642.93" y1="676.48" x2="481.16" y2="833.48"/>
                  <path class="st21" d="M481.12,836.25c-.71-.01-1.42-.29-1.95-.84-1.07-1.1-1.04-2.86.06-3.92l161.77-157c1.1-1.07,2.86-1.04,3.92.06,1.07,1.1,1.04,2.86-.06,3.92l-161.77,157c-.55.53-1.26.79-1.97.78Z"/>
                </g>
                <g>
                  <line class="st7" x1="669.38" y1="703.73" x2="507.61" y2="860.73"/>
                  <path class="st21" d="M507.56,863.51c-.71-.01-1.42-.29-1.95-.84-1.07-1.1-1.04-2.86.06-3.92l161.77-157c1.1-1.07,2.86-1.04,3.92.06,1.07,1.1,1.04,2.86-.06,3.92l-161.77,157c-.55.53-1.26.79-1.97.78Z"/>
                </g>
              </g>
              <g>
                <g>
                  <line class="st7" x1="688.26" y1="751.3" x2="462.85" y2="747.93"/>
                  <path class="st21" d="M688.22,754.08l-225.41-3.37c-1.53-.02-2.76-1.28-2.73-2.82.02-1.53,1.28-2.76,2.82-2.73l225.41,3.37c1.53.02,2.76,1.28,2.73,2.82-.02,1.53-1.28,2.76-2.82,2.73Z"/>
                </g>
                <g>
                  <line class="st7" x1="687.69" y1="789.28" x2="462.28" y2="785.9"/>
                  <path class="st21" d="M687.65,792.05l-225.41-3.37c-1.53-.02-2.76-1.28-2.73-2.82.02-1.53,1.28-2.76,2.82-2.73l225.41,3.37c1.53.02,2.76,1.28,2.73,2.82-.02,1.53-1.28,2.76-2.82,2.73Z"/>
                </g>
              </g>
              <g>
                <g>
                  <line class="st7" x1="667.4" y1="836.27" x2="510.39" y2="674.49"/>
                  <path class="st21" d="M667.35,839.04c-.71-.01-1.42-.29-1.95-.84l-157-161.77c-1.07-1.1-1.04-2.86.06-3.92,1.1-1.07,2.86-1.04,3.92.06l157,161.77c1.07,1.1,1.04,2.86-.06,3.92-.55.53-1.26.79-1.97.78Z"/>
                </g>
                <g>
                  <line class="st7" x1="640.15" y1="862.71" x2="483.14" y2="700.94"/>
                  <path class="st21" d="M640.1,865.49c-.71-.01-1.42-.29-1.95-.84l-157-161.77c-1.07-1.1-1.04-2.86.06-3.92,1.1-1.07,2.86-1.04,3.92.06l157,161.77c1.07,1.1,1.04,2.86-.06,3.92-.55.53-1.26.79-1.97.78Z"/>
                </g>
              </g>
            </g>
          </g>
          <g>
            <rect class="st23" x="855.76" y="519.02" width="248.4" height="172.71"/>
            <polygon class="st4" points="1049.99 519.02 976.24 690.68 894.68 690.68 968.42 519.02 1049.99 519.02"/>
            <rect class="st5" x="1088.5" y="519.02" width="15.66" height="172.71"/>
            <path class="st21" d="M1104.15,696.35h-248.4c-2.55,0-4.62-2.07-4.62-4.62v-172.7c0-2.55,2.07-4.62,4.62-4.62h248.4c2.55,0,4.62,2.07,4.62,4.62v172.7c0,2.55-2.07,4.62-4.62,4.62ZM860.38,687.1h239.15v-163.46h-239.15v163.46Z"/>
          </g>
          <g>
            <rect class="st18" x="148.74" y="348.64" width="316.41" height="24.34" transform="translate(667.76 53.86) rotate(90)"/>
            <path class="st21" d="M319.12,523.64h-24.34c-2.55,0-4.62-2.07-4.62-4.62V202.61c0-2.55,2.07-4.62,4.62-4.62h24.34c2.55,0,4.62,2.07,4.62,4.62v316.41c0,2.55-2.07,4.62-4.62,4.62ZM299.4,514.39h15.09V207.23h-15.09v307.16Z"/>
          </g>
          <g>
            <rect class="st18" x="685.38" y="348.64" width="316.41" height="24.34" transform="translate(1204.4 -482.78) rotate(90)"/>
            <path class="st21" d="M855.76,523.64h-24.34c-2.55,0-4.62-2.07-4.62-4.62V202.61c0-2.55,2.07-4.62,4.62-4.62h24.34c2.55,0,4.62,2.07,4.62,4.62v316.41c0,2.55-2.07,4.62-4.62,4.62ZM836.04,514.39h15.09V207.23h-15.09v307.16Z"/>
          </g>
          <g>
            <rect class="st18" x="779.09" y="815.74" width="129.01" height="24.34" transform="translate(1671.49 -15.68) rotate(90)"/>
            <path class="st21" d="M855.76,897.03h-24.34c-2.55,0-4.62-2.07-4.62-4.62v-129.01c0-2.55,2.07-4.62,4.62-4.62h24.34c2.55,0,4.62,2.07,4.62,4.62v129.01c0,2.55-2.07,4.62-4.62,4.62ZM836.04,887.78h15.09v-119.76h-15.09v119.76Z"/>
          </g>
          <g>
            <rect class="st9" x="319.12" y="202.61" width="512.3" height="93.07"/>
            <rect class="st6" x="319.12" y="202.61" width="512.3" height="31.08"/>
            <path class="st21" d="M831.42,300.3H319.12c-2.55,0-4.62-2.07-4.62-4.62v-93.07c0-2.55,2.07-4.62,4.62-4.62h512.3c2.55,0,4.62,2.07,4.62,4.62v93.07c0,2.55-2.07,4.62-4.62,4.62ZM323.74,291.05h503.05v-83.82h-503.05v83.82Z"/>
            <g>
              <path class="st18" d="M381.78,221.6v18.24h-1.41c-1.7-4.99-4.26-8.78-7.67-11.37s-7.14-3.89-11.18-3.89-7.09,1.09-9.66,3.26-4.39,5.21-5.46,9.1-1.6,7.89-1.6,11.98c0,4.96.59,9.31,1.76,13.05s3.06,6.49,5.67,8.24,5.71,2.63,9.29,2.63c1.25,0,2.53-.13,3.84-.4s2.65-.66,4.03-1.16v-10.76c0-2.04-.14-3.35-.42-3.95s-.86-1.14-1.74-1.62-1.94-.73-3.19-.73h-1.34v-1.41h25.15v1.41c-1.91.13-3.24.39-3.99.78s-1.33,1.05-1.74,1.97c-.23.48-.34,1.67-.34,3.55v10.76c-3.31,1.48-6.75,2.59-10.32,3.34s-7.28,1.13-11.13,1.13c-4.91,0-8.99-.67-12.23-2s-6.11-3.09-8.59-5.27-4.42-4.62-5.82-7.35c-1.78-3.51-2.67-7.44-2.67-11.79,0-7.79,2.74-14.36,8.21-19.73s12.35-8.05,20.65-8.05c2.57,0,4.89.2,6.95.61,1.12.2,2.93.78,5.44,1.74s3.99,1.43,4.45,1.43c.71,0,1.37-.26,1.98-.78s1.17-1.51,1.68-2.96h1.41Z"/>
              <path class="st18" d="M421.17,259.81h-18.28l-2.18,5.04c-.71,1.68-1.07,3.07-1.07,4.16,0,1.45.59,2.52,1.76,3.21.69.41,2.38.71,5.08.92v1.41h-17.21v-1.41c1.86-.28,3.38-1.05,4.58-2.31s2.67-3.86,4.43-7.81l18.51-41.3h.73l18.66,42.44c1.78,4.02,3.24,6.55,4.39,7.6.87.79,2.09,1.25,3.66,1.37v1.41h-25.04v-1.41h1.03c2.01,0,3.42-.28,4.24-.84.56-.41.84-.99.84-1.76,0-.46-.08-.93-.23-1.41-.05-.23-.43-1.18-1.15-2.86l-2.75-6.45ZM419.87,256.98l-7.71-17.82-7.94,17.82h15.65Z"/>
              <path class="st18" d="M446.13,274.54v-1.41h1.72c1.5,0,2.65-.24,3.45-.71s1.39-1.11,1.77-1.93c.23-.53.34-2.14.34-4.81v-34.04c0-2.65-.14-4.3-.42-4.96s-.85-1.24-1.7-1.74-2-.74-3.45-.74h-1.72v-1.41h23.17c6.18,0,11.16.84,14.92,2.52,4.61,2.06,8.1,5.18,10.48,9.35s3.57,8.89,3.57,14.16c0,3.64-.59,6.99-1.76,10.06s-2.68,5.6-4.54,7.6-4,3.6-6.43,4.81-5.4,2.14-8.91,2.81c-1.55.31-3.99.46-7.33.46h-23.17ZM465.86,225.72v40.38c0,2.14.1,3.45.31,3.93s.55.85,1.03,1.11c.69.38,1.68.57,2.98.57,4.25,0,7.49-1.45,9.73-4.35,3.05-3.92,4.58-10,4.58-18.24,0-6.64-1.04-11.95-3.13-15.92-1.65-3.1-3.78-5.22-6.37-6.34-1.83-.79-4.87-1.17-9.12-1.15Z"/>
              <path class="st18" d="M531.74,222.06c8.24-.31,14.94,2.1,20.09,7.21,5.15,5.11,7.73,11.51,7.73,19.2,0,6.56-1.92,12.34-5.76,17.33-5.09,6.62-12.28,9.92-21.56,9.92s-16.51-3.16-21.6-9.47c-4.02-4.99-6.03-10.9-6.03-17.75,0-7.68,2.61-14.09,7.84-19.22s11.66-7.54,19.29-7.23ZM532.2,224.5c-4.73,0-8.33,2.42-10.8,7.25-2.01,3.97-3.02,9.67-3.02,17.1,0,8.83,1.55,15.36,4.66,19.58,2.16,2.95,5.19,4.43,9.08,4.43,2.62,0,4.81-.64,6.56-1.91,2.24-1.63,3.98-4.23,5.23-7.81s1.87-8.24,1.87-13.99c0-6.84-.64-11.97-1.91-15.36s-2.89-5.79-4.87-7.19-4.24-2.1-6.81-2.1Z"/>
              <path class="st18" d="M586.51,260.53h-22.25v-7.9h22.25v7.9Z"/>
              <path class="st18" d="M642.31,221.6v18.24h-1.41c-1.7-4.99-4.26-8.78-7.67-11.37s-7.14-3.89-11.18-3.89-7.09,1.09-9.66,3.26-4.39,5.21-5.46,9.1-1.6,7.89-1.6,11.98c0,4.96.59,9.31,1.76,13.05s3.06,6.49,5.67,8.24,5.71,2.63,9.29,2.63c1.25,0,2.53-.13,3.84-.4s2.65-.66,4.03-1.16v-10.76c0-2.04-.14-3.35-.42-3.95s-.86-1.14-1.74-1.62-1.94-.73-3.19-.73h-1.34v-1.41h25.15v1.41c-1.91.13-3.24.39-3.99.78s-1.33,1.05-1.74,1.97c-.23.48-.34,1.67-.34,3.55v10.76c-3.31,1.48-6.75,2.59-10.32,3.34s-7.28,1.13-11.13,1.13c-4.91,0-8.99-.67-12.23-2s-6.11-3.09-8.59-5.27-4.42-4.62-5.82-7.35c-1.78-3.51-2.67-7.44-2.67-11.79,0-7.79,2.74-14.36,8.21-19.73s12.35-8.05,20.65-8.05c2.57,0,4.89.2,6.95.61,1.12.2,2.93.78,5.44,1.74s3.99,1.43,4.45,1.43c.71,0,1.37-.26,1.98-.78s1.17-1.51,1.68-2.96h1.41Z"/>
              <path class="st18" d="M681.69,259.81h-18.28l-2.18,5.04c-.71,1.68-1.07,3.07-1.07,4.16,0,1.45.59,2.52,1.76,3.21.69.41,2.38.71,5.08.92v1.41h-17.21v-1.41c1.86-.28,3.38-1.05,4.58-2.31s2.67-3.86,4.43-7.81l18.51-41.3h.73l18.66,42.44c1.78,4.02,3.24,6.55,4.39,7.6.87.79,2.09,1.25,3.66,1.37v1.41h-25.04v-1.41h1.03c2.01,0,3.42-.28,4.24-.84.56-.41.84-.99.84-1.76,0-.46-.08-.93-.23-1.41-.05-.23-.43-1.18-1.15-2.86l-2.75-6.45ZM680.4,256.98l-7.71-17.82-7.94,17.82h15.65Z"/>
              <path class="st18" d="M706.66,274.54v-1.41h1.72c1.5,0,2.65-.24,3.45-.71s1.39-1.11,1.77-1.93c.23-.53.34-2.14.34-4.81v-34.04c0-2.65-.14-4.3-.42-4.96s-.85-1.24-1.7-1.74-2-.74-3.45-.74h-1.72v-1.41h23.17c6.18,0,11.16.84,14.92,2.52,4.61,2.06,8.1,5.18,10.48,9.35,2.38,4.17,3.57,8.89,3.57,14.16,0,3.64-.59,6.99-1.76,10.06-1.17,3.07-2.68,5.6-4.54,7.6s-4,3.6-6.43,4.81-5.4,2.14-8.91,2.81c-1.55.31-3.99.46-7.33.46h-23.17ZM726.39,225.72v40.38c0,2.14.1,3.45.31,3.93s.55.85,1.03,1.11c.69.38,1.68.57,2.98.57,4.25,0,7.49-1.45,9.73-4.35,3.05-3.92,4.58-10,4.58-18.24,0-6.64-1.04-11.95-3.13-15.92-1.65-3.1-3.78-5.22-6.37-6.34-1.83-.79-4.87-1.17-9.12-1.15Z"/>
              <path class="st18" d="M792.26,222.06c8.24-.31,14.94,2.1,20.09,7.21,5.15,5.11,7.73,11.51,7.73,19.2,0,6.56-1.92,12.34-5.76,17.33-5.09,6.62-12.28,9.92-21.56,9.92s-16.51-3.16-21.6-9.47c-4.02-4.99-6.03-10.9-6.03-17.75,0-7.68,2.61-14.09,7.84-19.22,5.23-5.13,11.66-7.54,19.29-7.23ZM792.72,224.5c-4.73,0-8.33,2.42-10.8,7.25-2.01,3.97-3.02,9.67-3.02,17.1,0,8.83,1.55,15.36,4.66,19.58,2.16,2.95,5.19,4.43,9.08,4.43,2.62,0,4.81-.64,6.56-1.91,2.24-1.63,3.98-4.23,5.23-7.81s1.87-8.24,1.87-13.99c0-6.84-.64-11.97-1.91-15.36s-2.89-5.79-4.87-7.19-4.24-2.1-6.81-2.1Z"/>
            </g>
          </g>
          <g>
            <polygon class="st23" points="855.76 519.02 855.76 763.4 698.14 763.4 678.43 719.35 472.11 719.35 452.68 763.4 294.78 763.4 294.78 519.02 855.76 519.02"/>
            <polygon class="st4" points="484.14 562.55 387.81 763.4 306.24 763.4 402.57 562.55 484.14 562.55"/>
            <polygon class="st4" points="719.37 562.55 645.63 719.35 564.06 719.35 637.8 562.55 719.37 562.55"/>
            <rect class="st6" x="294.78" y="519.02" width="560.98" height="43.53"/>
            <path class="st21" d="M855.76,768.03h-157.62c-1.82,0-3.48-1.07-4.22-2.74l-18.48-41.32h-200.31l-18.21,41.29c-.74,1.68-2.4,2.76-4.23,2.76h-157.9c-2.55,0-4.62-2.07-4.62-4.62v-244.38c0-2.55,2.07-4.62,4.62-4.62h560.98c2.55,0,4.62,2.07,4.62,4.62v244.38c0,2.55-2.07,4.62-4.62,4.62ZM701.13,758.78h150v-235.14H299.4v235.14h150.27l18.21-41.29c.74-1.68,2.4-2.76,4.23-2.76h206.32c1.82,0,3.48,1.07,4.22,2.74l18.49,41.32Z"/>
          </g>
          <g>
            <rect class="st11" x="230.45" y="519.02" width="693.22" height="16.16"/>
            <path class="st21" d="M923.68,539.8H230.45c-2.55,0-4.62-2.07-4.62-4.62v-16.16c0-2.55,2.07-4.62,4.62-4.62h693.22c2.55,0,4.62,2.07,4.62,4.62v16.16c0,2.55-2.07,4.62-4.62,4.62ZM235.08,530.55h683.98v-6.91H235.08v6.91Z"/>
          </g>
          <g>
            <rect class="st18" x="141.9" y="167.09" width="1009.86" height="35.52"/>
            <path class="st5" d="M1151.77,167.09v35.52h-16.41v-18.63c0-4.42-3.59-8.01-8.01-8.01H141.9v-8.88h1009.86Z"/>
            <path class="st21" d="M1151.77,207.23H141.91c-2.55,0-4.62-2.07-4.62-4.62v-35.52c0-2.55,2.07-4.62,4.62-4.62h1009.86c2.55,0,4.62,2.07,4.62,4.62v35.52c0,2.55-2.07,4.62-4.62,4.62ZM146.53,197.98h1000.61v-26.27H146.53v26.27Z"/>
          </g>
        </g>
      </g>
    </g>
  </g>
</svg>